<svg width="400" height="400" viewBox="0 0 400 400" fill="none" xmlns="http://www.w3.org/2000/svg">
<path d="M388.168 359.934C263.054 359.846 138.934 359.934 11.248 359.934C11.0836 359.924 10.9191 359.95 10.765 360.008C10.6109 360.066 10.4706 360.155 10.3533 360.271C10.236 360.386 10.1443 360.525 10.0839 360.678C10.0236 360.832 9.99606 360.996 10.0031 361.16C10.0101 361.325 10.0515 361.486 10.1247 361.633C10.1979 361.781 10.3012 361.912 10.4279 362.017C10.5546 362.122 10.702 362.199 10.8604 362.244C11.0189 362.289 11.185 362.299 11.348 362.276C138.394 363.696 263.168 362.76 388.282 362.86C388.5 362.894 388.722 362.879 388.933 362.817C389.145 362.755 389.34 362.647 389.504 362.5C389.669 362.354 389.799 362.172 389.885 361.97C389.971 361.767 390.011 361.548 390.003 361.328C389.994 361.108 389.937 360.892 389.835 360.697C389.734 360.501 389.59 360.331 389.414 360.198C389.239 360.064 389.036 359.972 388.821 359.926C388.605 359.881 388.382 359.883 388.168 359.934Z" fill="#E5BA43"/>
<path d="M168.166 108.668C166.384 106.73 165.71 108.526 165.582 110.316C164.716 122.148 177.67 126.764 182.044 116.822C183.124 114.364 183.01 113.54 180.624 113.696C178.287 114.062 175.894 113.788 173.701 112.902C171.507 112.017 169.594 110.554 168.166 108.668ZM180.056 115.97C178.238 121.084 169.034 122.97 167.456 110.784C168.99 112.592 170.934 114.006 173.126 114.908C175.318 115.81 177.694 116.174 180.056 115.97Z" fill="#E5BA43"/>
<path d="M171.2 100.23C172.62 99.914 172.138 96.694 171.286 95.97C169.048 93.966 168.832 100.762 171.2 100.23Z" fill="#E5BA43"/>
<path d="M170.88 86.906C169.532 87.0246 168.248 87.5362 167.187 88.3773C166.127 89.2184 165.336 90.3521 164.914 91.638C164.914 91.85 165.198 93.768 166.888 91.878C167.389 91.2118 168.031 90.6642 168.767 90.2739C169.504 89.8837 170.317 89.6604 171.15 89.62C173.6 89.122 172.812 86.864 170.88 86.906Z" fill="#E5BA43"/>
<path d="M182.868 108.014C184.528 107.482 185.554 106.31 183.868 104.814C182.071 103.158 180.835 100.983 180.332 98.5921C180.306 98.3949 180.204 98.2158 180.047 98.0934C179.89 97.9709 179.692 97.915 179.494 97.9375C179.297 97.9601 179.116 98.0594 178.991 98.214C178.866 98.3686 178.807 98.5662 178.826 98.7641C179.114 101.55 180.391 104.14 182.426 106.064C180.636 107.144 179.4 106.562 178.718 107.158C177.57 108.17 179.34 109.148 182.868 108.014Z" fill="#E5BA43"/>
<path d="M190 89.578C189.642 88.7419 189.048 88.028 188.291 87.5234C187.535 87.0187 186.648 86.7451 185.738 86.736C183.578 86.736 184.006 88.838 185.398 89.01C186.654 89.0437 187.852 89.5509 188.75 90.43C189.63 91.168 190.326 90.828 190 89.578Z" fill="#E5BA43"/>
<path d="M186.4 100.046C187.82 99.93 187.6 95.302 186.058 95.586C184.218 95.942 185.028 100.158 186.4 100.046Z" fill="#E5BA43"/>
<path d="M148.182 143.924C152.894 150.35 168.75 161.85 177.698 166.808C180.07 168.128 181.392 169.278 182.854 166.168C185.468 160.67 186.618 143.54 185.284 141.254C184.872 140.558 183.864 140.884 183.594 141.466C182.994 142.546 183.794 156.892 180.838 165.798C169.488 159.469 159.023 151.669 149.716 142.6C148.962 141.864 147.43 142.9 148.182 143.924Z" fill="#E5BA43"/>
<path d="M323.11 139.904C322.27 140.304 322.698 141.778 323.636 141.504C332.996 138.778 335.284 132.704 340.398 130.142C346.89 126.942 352.074 125.27 356.96 119.342C357.5 118.702 356.506 117.836 355.894 118.362C348.792 124.47 346.704 124.782 339.004 128.304C333.948 130.6 333.372 135.096 323.11 139.904Z" fill="#E5BA43"/>
<path d="M318.892 124.4C320.972 123.158 323.594 122.54 325.908 121.432C329.928 122.522 333.794 124.116 337.414 126.176C338.494 126.802 339.46 125.764 338.836 125.096C343.694 121.986 352.06 117.296 354.146 111.66C354.374 111.034 353.346 110.154 352.968 110.722C350.398 114.472 343.836 119.122 337.342 123.734L334.316 122.312C337.968 120.14 346.676 110.864 348.14 106.574C348.187 106.407 348.179 106.228 348.116 106.066C348.053 105.904 347.939 105.767 347.792 105.676C347.644 105.584 347.47 105.543 347.297 105.559C347.124 105.575 346.961 105.647 346.832 105.764C342.726 109.564 339.53 116.404 331.958 121.39C330.751 120.923 329.519 120.523 328.268 120.19C332.938 116.867 336.753 112.484 339.4 107.4C339.463 107.2 339.446 106.983 339.351 106.796C339.257 106.609 339.093 106.467 338.894 106.4C337.112 105.8 332.252 116.184 324.356 119.906C322.17 120.708 320.083 121.756 318.136 123.032C317.342 123.568 318.06 124.904 318.892 124.4Z" fill="#E5BA43"/>
<path d="M306.776 133.64C309.028 124.9 312.458 124.932 314.872 120.6C316.61 117.082 317.234 113.118 316.662 109.236C316.434 108.314 315.242 108.598 315.128 109.422C314.63 113.754 315.384 117.39 310.866 121.95C307.712 125.15 305.066 128.71 305.184 133.442C305.187 133.637 305.261 133.825 305.391 133.97C305.522 134.116 305.7 134.209 305.894 134.233C306.088 134.257 306.284 134.21 306.446 134.101C306.608 133.992 306.725 133.829 306.776 133.64Z" fill="#E5BA43"/>
<path d="M205.454 312.078C203.502 322.56 201.632 337.888 204.19 348.242C204.488 349.442 206.562 349.28 206.32 348.1C204.148 337.276 206.32 321.766 208.21 312.206C208.65 309.962 205.978 309.266 205.454 312.078Z" fill="#E5BA43"/>
<path d="M185.922 136.836C209.672 137.558 233.75 138.036 256.776 138.256C269.956 138.412 278.394 139.456 281.35 159.364C281.576 160.884 284.19 160.7 284.048 159.152C281.874 139.122 272.868 135.628 256.718 135.472C233.436 135.246 209.644 134.706 186.136 134.79C184.8 134.862 184.574 136.8 185.922 136.836Z" fill="#E5BA43"/>
<path d="M65.552 284.28C67.66 301.056 73.308 306.738 91.262 307.206C154.018 308.726 223.238 307.872 286.718 307.206C306.804 307.006 309.118 299.138 306.292 281.296C302.812 259.21 299.928 236.252 295.382 214.434C295.142 213.328 293.45 213.434 293.582 214.606C295.94 237.192 300.416 259.422 303.626 281.852C305.842 297.332 305.626 304.252 286.936 304.308C226.978 304.48 152.914 305.886 94.506 304.846C83.042 304.646 70.244 304.748 68.106 284.11C63.772 242.092 59.952 199.962 55.846 157.91C54.284 141.844 63.772 137.158 79.81 136.844C100.762 136.418 122.978 136.716 143.318 136.844C143.484 136.857 143.652 136.836 143.81 136.783C143.968 136.73 144.114 136.646 144.239 136.536C144.364 136.425 144.466 136.291 144.539 136.141C144.611 135.99 144.653 135.827 144.661 135.661C144.67 135.494 144.645 135.327 144.588 135.17C144.531 135.014 144.443 134.87 144.33 134.748C144.216 134.625 144.079 134.527 143.927 134.458C143.775 134.39 143.611 134.352 143.444 134.348C143.244 134.336 95.798 133.912 79.512 134.26C63.56 134.558 51.272 138.776 53.176 158.166C57.228 199.848 60.344 242.82 65.552 284.28Z" fill="#E5BA43"/>
<path d="M155.482 310.472C152.242 319.088 147.584 333.726 147.342 342.802C147.072 353.54 151.22 357.106 161.448 357.106C185.084 357.106 212.726 357.106 236.732 356.992C238.65 356.992 238.332 354.038 236.42 354.038C210.71 354.038 184.004 354.152 158.464 354.038C151.548 354.038 150.226 348.982 150.282 343.086C150.382 332.874 155.424 318.328 158.01 311.41C158.134 311.075 158.12 310.704 157.971 310.379C157.822 310.054 157.55 309.801 157.215 309.677C156.88 309.553 156.509 309.566 156.184 309.716C155.859 309.865 155.606 310.137 155.482 310.472Z" fill="#E5BA43"/>
<path d="M70.894 272.646C144.246 272.766 224.094 272.646 296.988 272.432C298.82 272.432 298.65 269.592 296.832 269.592C223.878 269.592 143.962 269.918 70.766 270.416C69.302 270.4 69.488 272.644 70.894 272.646Z" fill="#E5BA43"/>
<path d="M176.278 137.2C176.732 138.522 178.252 143.82 179.63 143.352C181.008 142.884 178.948 137.67 178.43 136.25C178.27 136.024 178.037 135.86 177.77 135.786C177.503 135.712 177.219 135.733 176.965 135.845C176.712 135.957 176.505 136.153 176.38 136.4C176.255 136.647 176.219 136.93 176.278 137.2Z" fill="#E5BA43"/>
<path d="M146.2 83.7239C147.977 83.6649 149.728 84.1633 151.208 85.1492C152.688 86.1351 153.822 87.5592 154.452 89.2219C156.533 87.8547 158.32 86.0844 159.706 84.0155C161.092 81.9466 162.049 79.621 162.522 77.1759C169.978 77.2759 193.202 78.5959 194.122 76.7079C195.042 74.8199 194.122 53.5399 169.974 53.1839C152.13 52.9439 143.052 65.9119 146.2 83.7239Z" fill="#E5BA43"/>
<path d="M117.67 121.438C114.976 124.85 121.07 123.782 125.568 119.478C130.066 115.174 134.702 100.856 132.4 87.986C130.098 75.116 133.82 68.986 138.38 69.186C138.92 65.052 141.98 52.85 152.116 48.106C145.028 38.262 128.878 33.418 116.504 50.294C106 64.634 119.09 85.146 120.524 97.788C121.958 110.43 120.358 118.032 117.67 121.438Z" fill="#E5BA43"/>
<path d="M152.358 139.122C152.47 136.41 152.058 123.952 151.358 122.078C151.253 121.891 151.097 121.738 150.907 121.638C150.718 121.539 150.504 121.496 150.29 121.515C150.077 121.535 149.874 121.616 149.706 121.748C149.537 121.881 149.411 122.059 149.342 122.262C149.465 127.968 149.939 133.66 150.762 139.308C150.826 139.482 150.946 139.63 151.105 139.728C151.263 139.825 151.449 139.866 151.633 139.845C151.818 139.823 151.99 139.74 152.121 139.609C152.253 139.478 152.336 139.306 152.358 139.122Z" fill="#E5BA43"/>
<path d="M191.902 80.472C191.902 91.65 191.902 112.66 183.778 123.086C183.178 123.838 184.288 125.358 186.064 123.342C193.038 115.43 195.88 89.342 193.864 80.372C193.65 79.264 191.902 79.322 191.902 80.472Z" fill="#E5BA43"/>
<path d="M213.862 123.242C223.636 123.318 238.01 116.14 245.114 109.592C281.05 126.354 328.58 105.828 313.79 64.136C301.208 28.626 238.11 29.506 221.888 57.318C213.92 70.97 214.786 91.318 229.9 99.818C227.286 106.708 220.284 117.148 212.954 121.666C212.542 121.878 211.8 123.226 213.862 123.242ZM231.136 103.156C232.906 99.802 233.678 99.392 230.298 97.034C217.612 88.234 217.328 71.154 224.388 58.682C237.988 34.648 293.988 32.972 308.338 60.244C326.138 94.108 291.738 125.998 246.306 106.978C245.917 106.738 245.454 106.647 245.003 106.72C244.551 106.794 244.141 107.027 243.848 107.378C234.956 115.658 228.636 118.178 218.152 120.56C223.362 115.472 227.743 109.6 231.136 103.156Z" fill="black"/>
<path d="M287.6 82.73C277.372 82.73 258.622 83.384 248.934 83.412C245.454 83.412 244.772 86.708 248.934 86.612C257.626 86.442 283.026 86.512 288.21 85.812C289.914 85.6 289.332 82.73 287.6 82.73Z" fill="black"/>
<path d="M245.666 72.0199C251.234 72.4439 287.666 72.5459 291.122 70.1739C291.295 70.0532 291.433 69.89 291.524 69.7C291.615 69.5101 291.655 69.2999 291.641 69.0899C291.626 68.8798 291.558 68.677 291.442 68.5011C291.326 68.3252 291.167 68.1822 290.98 68.0859C289.402 67.2479 246.718 68.9799 245.524 69.2079C243.366 69.6199 243.494 71.8539 245.666 72.0199Z" fill="black"/>
<path d="M146.292 110.714C148.057 115.298 150.948 119.362 154.699 122.533C158.451 125.703 162.94 127.876 167.754 128.852C168.024 131.694 170.154 132.816 172.47 133.512C185.596 137.39 189.36 124.42 177.87 123.712C175.03 123.542 170.598 123.614 168.624 126.014C164.157 125.129 159.988 123.123 156.509 120.185C153.031 117.246 150.356 113.471 148.738 109.214C154.59 105.436 155.214 84.952 144.05 86.274C142.63 77.75 142.772 69 146.08 62.338C154.348 45.662 185.542 46.372 193.794 62.51C198.638 71.984 197.218 96.458 195.214 106.856C194.814 108.958 198.226 107.608 198.814 107.24C204.326 103.802 206.642 90.194 199.814 87.992C200.114 80.706 199.928 69.754 197.272 63.092C189.332 43.106 153.778 41.344 143.636 60.818C139.502 68.746 139.374 78.504 141.448 87.07C131.022 92.248 136.6 113.256 146.292 110.714Z" fill="black"/>
<path d="M303.182 135.814C299.758 140.074 275.924 175.302 266.038 185.7C267.445 187.104 268.78 188.579 270.038 190.118C270.178 190.263 270.256 190.456 270.255 190.657C270.255 190.859 270.176 191.052 270.035 191.196C269.895 191.34 269.704 191.424 269.503 191.429C269.302 191.435 269.106 191.362 268.958 191.226C255.636 178.314 233.446 158.768 218.504 149.606C212.054 145.658 203.574 142.66 188.674 140.5C189.37 148.044 194.356 186.878 194.554 211.78C194.994 229.748 195.974 248.158 196.174 266.07C209.342 266.07 221.26 266.07 230.264 266.154C233.106 228.086 237.368 198.74 224.864 180.928C224.252 180.046 225.886 179.108 226.482 179.99C235.204 192.504 236.426 206.012 235.716 220.856C244.452 226.354 266.284 232.718 275.374 230.572C285.234 228.242 319.124 163.81 324.138 145.7C319.488 140.628 307.84 136.282 303.182 135.814ZM206.234 183.768C210.234 187.334 214.446 190.686 218.252 194.464C218.386 194.655 218.467 194.877 218.487 195.11C218.507 195.342 218.465 195.575 218.366 195.786C212.982 209.986 204.034 224.834 200.524 239.138C200.142 240.738 191.804 246.154 216.324 195.786C212.83 192.586 209.29 189.464 205.84 186.24C202.04 182.704 201.64 185.624 216.662 167.162C212.862 163.91 203.128 155.8 200.356 152.83C199.646 152.03 200.356 151.268 201.25 151.83C204.732 154.102 215.214 162.71 219.064 166.03C219.312 166.224 219.477 166.504 219.527 166.815C219.577 167.126 219.508 167.444 219.334 167.706C219.532 167.702 219.748 167.228 206.234 183.768Z" fill="black"/>
<path d="M142.428 140.856C138.828 140.856 109.956 153.014 101.348 170.954C94.246 185.67 89.886 242.32 89.19 266.296H125.8C124.892 253.512 127.618 227.006 130.062 213.938C130.262 212.916 131.952 213.214 131.862 214.222C130.914 224.638 129.967 235.055 129.02 245.472C131.005 252.52 133.377 259.453 136.124 266.24C154.724 266.24 175.456 266.126 193.924 266.126C193.37 245.032 193.156 229.108 191.892 210.572C179.97 195.856 147.514 152.304 142.428 140.856ZM184.942 221.822C171.834 212.293 158.2 203.51 144.104 195.514C143.806 195.371 143.577 195.116 143.465 194.805C143.352 194.495 143.367 194.152 143.504 193.852C145.946 189.776 148.404 185.728 150.862 181.666C142.617 179.406 134.648 176.238 127.102 172.22C126.798 172.094 126.555 171.854 126.425 171.551C126.295 171.249 126.288 170.907 126.406 170.6C129.516 164.506 132.67 158.626 135.852 152.574C135.957 152.377 136.134 152.227 136.345 152.156C136.557 152.084 136.787 152.095 136.991 152.187C137.194 152.279 137.355 152.445 137.441 152.651C137.527 152.858 137.53 153.089 137.452 153.298C134.782 159.066 131.97 164.762 129.228 170.498C136.689 174.274 144.496 177.322 152.542 179.6C153.196 179.8 153.892 181.02 153.564 181.616C151.22 185.778 148.75 189.856 146.334 193.988C158.622 200.894 175.496 211.188 186.108 220.708C187.186 221.744 186.22 222.738 184.942 221.872V221.822Z" fill="black"/>
</svg>
