<svg width="641" height="426" viewBox="0 0 641 426" fill="none" xmlns="http://www.w3.org/2000/svg">
<g clip-path="url(#clip0_700_4693)">
<path d="M229.927 245.167C251.894 206.523 293.797 176.851 338.155 179.709C305.435 215.291 286.356 261.3 284.292 309.595C283.564 328.224 284.693 349.019 272.325 362.968C264.629 371.647 252.866 375.85 241.3 376.732C229.734 377.614 218.17 375.524 206.759 373.443L203.99 374.293C202.937 329.854 207.96 283.81 229.927 245.167Z" fill="#F0F0F0"/>
<path d="M338.221 180.64C305.419 196.431 277.449 222.804 260.279 254.969C256.567 261.922 253.407 269.299 252.028 277.099C250.649 284.903 251.612 292.331 254.278 299.743C256.714 306.519 259.991 313.167 260.738 320.417C261.526 328.059 258.714 335.205 253.653 340.876C247.46 347.814 239.144 352.114 230.865 356.036C221.673 360.39 212.057 364.768 205.546 372.895C204.757 373.88 203.275 372.598 204.063 371.615C215.39 357.475 234.78 354.817 248.225 343.426C254.499 338.111 259.209 330.873 258.912 322.392C258.652 314.976 255.279 308.117 252.752 301.278C250.1 294.096 248.777 286.876 249.728 279.219C250.701 271.387 253.58 263.871 257.098 256.853C265.032 241.025 275.89 226.494 288.328 213.933C302.623 199.494 319.283 187.607 337.586 178.786C338.719 178.241 339.346 180.098 338.221 180.64Z" fill="white"/>
<path d="M265.309 244.219C260.28 240.542 256.722 235.197 255.27 229.139C253.819 223.081 254.568 216.704 257.384 211.147C257.957 210.025 259.728 210.863 259.154 211.987C256.522 217.157 255.825 223.097 257.189 228.736C258.552 234.375 261.886 239.34 266.589 242.736C267.61 243.475 266.324 244.954 265.309 244.219Z" fill="white"/>
<path d="M252.59 296.47C265.19 294.629 276.634 288.106 284.639 278.202C285.431 277.22 286.913 278.501 286.122 279.482C277.773 289.773 265.85 296.537 252.733 298.424C251.483 298.603 251.346 296.648 252.59 296.47Z" fill="white"/>
<path d="M303.591 201.904C305.24 203.733 307.318 205.123 309.637 205.949C311.956 206.776 314.444 207.014 316.878 206.642C318.125 206.447 318.261 208.402 317.021 208.595C314.33 208.994 311.583 208.728 309.018 207.821C306.454 206.913 304.151 205.391 302.311 203.388C302.121 203.213 302.006 202.973 301.987 202.717C301.968 202.46 302.047 202.206 302.209 202.006C302.38 201.81 302.62 201.69 302.879 201.671C303.138 201.652 303.394 201.736 303.591 201.904Z" fill="white"/>
<path d="M426.413 301.616C425.637 301.76 424.862 301.904 424.079 302.062C413.664 304.049 403.427 306.879 393.469 310.524C392.695 310.794 391.914 311.078 391.149 311.37C367.254 320.407 345.243 333.802 326.237 350.874C318.68 357.674 311.652 365.039 305.213 372.906C296.32 383.771 287.543 396.258 275.923 403.342C274.719 404.095 273.47 404.773 272.182 405.371L205.242 377.604C205.121 377.465 204.994 377.34 204.873 377.2L202.149 376.214C202.453 375.785 202.777 375.347 203.081 374.918C203.256 374.668 203.446 374.425 203.622 374.175C203.743 374.011 203.865 373.847 203.966 373.692C204.006 373.637 204.047 373.582 204.081 373.543C204.181 373.387 204.291 373.254 204.385 373.114C206.19 370.658 208.017 368.212 209.863 365.773C209.87 365.758 209.87 365.758 209.891 365.749C224.009 347.207 239.798 329.68 257.746 315.107C258.287 314.668 258.832 314.215 259.403 313.789C267.53 307.265 276.176 301.416 285.255 296.301C290.236 293.516 295.354 290.985 300.591 288.717C314.132 282.885 328.507 279.219 343.188 277.853C372.455 275.135 402.265 281.808 424.712 300.195C425.286 300.665 425.845 301.13 426.413 301.616Z" fill="#F0F0F0"/>
<path d="M425.91 302.404C390.212 295.262 352.002 299.48 318.928 314.823C311.778 318.141 304.813 322.128 299.016 327.526C293.217 332.926 289.514 339.437 287.18 346.96C285.046 353.837 283.66 361.118 279.891 367.357C275.919 373.933 269.372 377.945 261.917 379.426C252.795 381.237 243.567 379.663 234.595 377.81C224.634 375.753 214.32 373.458 204.229 376.027C203.006 376.339 202.595 374.423 203.815 374.112C221.373 369.642 238.454 379.194 256.048 378.194C264.257 377.728 272.376 374.785 277.244 367.834C281.502 361.756 282.938 354.249 285.038 347.267C287.244 339.936 290.535 333.374 295.904 327.833C301.396 322.166 308.22 317.898 315.254 314.412C331.118 306.552 348.536 301.487 366.03 298.946C386.136 296.025 406.595 296.564 426.52 300.541C427.753 300.788 427.135 302.649 425.91 302.404Z" fill="white"/>
<path d="M329.416 309.269C327.615 303.305 327.992 296.896 330.48 291.184C332.968 285.473 337.405 280.832 342.999 278.091C344.133 277.54 345.042 279.276 343.907 279.828C338.693 282.371 334.56 286.694 332.254 292.017C329.948 297.34 329.621 303.312 331.331 308.855C331.701 310.06 329.784 310.467 329.416 309.269Z" fill="white"/>
<path d="M287.803 343.33C298.972 349.447 312.036 351.129 324.391 348.04C325.614 347.733 326.026 349.649 324.804 349.955C311.942 353.145 298.35 351.367 286.741 344.977C285.635 344.367 286.703 342.724 287.803 343.33Z" fill="white"/>
<path d="M385.458 298.532C385.674 300.984 386.496 303.345 387.85 305.401C389.204 307.458 391.047 309.146 393.215 310.314C394.328 310.909 393.259 312.552 392.153 311.96C389.764 310.659 387.73 308.792 386.229 306.523C384.729 304.255 383.806 301.653 383.543 298.945C383.497 298.692 383.548 298.431 383.688 298.214C383.827 297.998 384.044 297.843 384.293 297.781C384.547 297.727 384.812 297.776 385.03 297.917C385.248 298.058 385.402 298.278 385.458 298.532Z" fill="white"/>
<path d="M298.897 347.425C289.522 302.096 277.804 286.983 277.804 286.983L273.327 283.511L267.943 279.329L267.969 278.791L266.693 278.357L266.393 278.124L265.901 277.747L265.822 277.832L265.655 278.005L241.293 269.723L210.387 259.225L196.075 240.622C193.744 237.592 190.743 235.143 187.307 233.468C183.872 231.792 180.095 230.934 176.272 230.963L130.565 231.301C124.385 231.347 118.445 233.703 113.914 237.906L83.8711 265.773L37.0587 288.131L36.9797 288.052L36.4881 288.403L29.2552 291.862L29.5537 293.415L25.0769 296.646C25.0769 296.646 13.3585 310.708 3.98371 352.887C1.59887 363.619 0.424969 386.641 0.00125177 415.011C-0.0200315 416.446 0.24419 417.871 0.778547 419.203C1.3129 420.535 2.10674 421.747 3.11389 422.77C4.12105 423.793 5.32142 424.605 6.64523 425.159C7.96904 425.714 9.38987 425.999 10.8251 426H260.859L292.067 426C293.501 425.999 294.921 425.714 296.244 425.16C297.567 424.606 298.767 423.795 299.774 422.773C300.781 421.752 301.575 420.541 302.11 419.21C302.645 417.88 302.91 416.456 302.891 415.022C302.477 384.152 301.304 359.064 298.897 347.425Z" fill="#E5BA43"/>
<path d="M330.977 39.5312C321.25 39.5313 311.92 43.3957 305.042 50.2745C298.163 57.1532 294.299 66.4829 294.299 76.2109C294.299 85.9389 298.163 95.2686 305.042 102.147C311.92 109.026 321.25 112.891 330.977 112.891H604.321C614.049 112.891 623.378 109.026 630.257 102.147C637.136 95.2686 641 85.9389 641 76.2109C641 66.4829 637.136 57.1532 630.257 50.2745C623.378 43.3957 614.049 39.5313 604.321 39.5312H330.977Z" fill="#E5E5E5"/>
<path d="M330.978 46.9543C323.218 46.9543 315.777 50.0367 310.291 55.5233C304.804 61.01 301.722 68.4515 301.722 76.2108C301.722 83.97 304.804 91.4115 310.291 96.8981C315.777 102.385 323.218 105.467 330.978 105.467H604.321C612.08 105.467 619.522 102.385 625.008 96.8981C630.495 91.4115 633.577 83.97 633.577 76.2108C633.577 68.4515 630.495 61.01 625.008 55.5233C619.522 50.0367 612.08 46.9543 604.321 46.9543H330.978Z" fill="white"/>
<path d="M160.596 213.791C193.668 213.791 220.478 186.981 220.478 153.908C220.478 120.836 193.668 94.0256 160.596 94.0256C127.525 94.0256 100.715 120.836 100.715 153.908C100.715 186.981 127.525 213.791 160.596 213.791Z" fill="#DFAA8B"/>
<path d="M145.278 210.859C145.022 210.296 144.767 209.73 144.512 209.163C144.61 209.166 144.707 209.181 144.805 209.183L145.278 210.859Z" fill="#2F2E41"/>
<path d="M99.05 96.7488C102.079 94.3328 105.618 92.1098 109.491 92.2347C113.363 92.3595 117.289 95.8569 116.487 99.6472C123.599 87.0538 134.92 77.368 148.462 72.2899C162.004 67.2119 176.902 67.0661 190.541 71.8782C200.165 75.2737 209.603 82.0667 211.814 92.0299C212.381 94.5875 212.503 97.3919 214.1 99.4688C216.113 102.087 219.966 102.68 223.138 101.758C223.169 101.749 223.201 101.74 223.233 101.73C223.768 101.547 224.347 101.529 224.893 101.679C225.439 101.828 225.928 102.138 226.296 102.568C226.665 102.998 226.895 103.529 226.958 104.092C227.022 104.655 226.915 105.223 226.651 105.725L223.928 110.803C227.361 111.568 230.927 111.492 234.324 110.582C234.889 110.434 235.485 110.464 236.032 110.669C236.578 110.873 237.048 111.241 237.377 111.723C237.705 112.205 237.877 112.777 237.868 113.36C237.859 113.944 237.67 114.51 237.326 114.981C228.347 127.309 213.346 135.27 198.038 135.177C187.158 135.11 176.166 131.36 165.577 133.862C161.481 134.83 157.653 136.703 154.375 139.343C151.096 141.984 148.451 145.324 146.632 149.121C144.813 152.917 143.868 157.072 143.864 161.281C143.861 165.49 144.8 169.647 146.612 173.446C143.359 169.888 137.071 170.73 133.743 174.219C130.416 177.708 129.554 182.915 129.89 187.724C130.402 195.08 133.284 202.011 136.323 208.757C110.85 207.955 86.7568 190.086 78.6471 165.918C70.5033 141.648 79.0383 112.713 99.05 96.7488Z" fill="#2F2E41"/>
<path opacity="0.2" d="M58.9385 333.74L75.7338 425.123L85.8114 426L58.9385 333.74Z" fill="black"/>
<path opacity="0.2" d="M243.942 326.848L227.147 425.056L217.069 426L243.942 326.848Z" fill="black"/>
<path d="M113.375 65.9943C110.155 67.339 106.795 65.8653 105.385 62.4904C103.955 59.0639 105.291 55.5855 108.563 54.2192C111.835 52.8529 115.135 54.3302 116.589 57.8119C118.021 61.2415 116.699 64.6061 113.375 65.9943ZM107.206 47.4748L104.646 48.544C104.006 48.8079 103.291 48.8221 102.641 48.5838C101.992 48.3456 101.455 47.8721 101.138 47.2572L101.011 47.0095C98.2561 42.0407 97.9406 36.0019 100.079 29.0702C102.059 22.8521 102.882 18.479 101.227 14.5172C99.3146 9.93653 95.2304 8.50165 90.0221 10.5802C88.002 11.4238 87.3592 11.4103 85.7696 12.9873C85.4238 13.3345 85.0116 13.6086 84.5576 13.793C84.1037 13.9775 83.6172 14.0687 83.1272 14.0611C82.6536 14.0555 82.1859 13.9546 81.7521 13.7644C81.3183 13.5742 80.9272 13.2985 80.6022 12.9539C79.976 12.2898 79.6253 11.4128 79.6207 10.5001C79.616 9.58733 79.958 8.70684 80.5774 8.03642C83.2493 5.23932 86.4721 3.02645 90.0422 1.53746C101.233 -3.1354 106.866 3.76341 109.444 9.9372C111.965 15.9759 110.547 21.5788 108.268 28.835C106.358 34.8646 106.469 39.3324 108.639 43.7747C108.795 44.1106 108.883 44.4746 108.895 44.845C108.907 45.2154 108.845 45.5844 108.711 45.93C108.577 46.2756 108.375 46.5905 108.117 46.856C107.858 47.1215 107.548 47.3319 107.206 47.4748Z" fill="black"/>
<path d="M391.356 93.7045H336.97C336.798 93.7057 336.626 93.6726 336.466 93.6073C336.306 93.542 336.161 93.4457 336.038 93.324C335.916 93.2022 335.818 93.0574 335.752 92.8979C335.686 92.7384 335.651 92.5673 335.651 92.3945C335.651 92.2217 335.686 92.0506 335.752 91.8911C335.818 91.7316 335.916 91.5868 336.038 91.465C336.161 91.3433 336.306 91.247 336.466 91.1817C336.626 91.1163 336.798 91.0833 336.97 91.0845H391.356C391.701 91.0869 392.032 91.2259 392.276 91.4713C392.52 91.7167 392.657 92.0486 392.657 92.3945C392.657 92.7404 392.52 93.0722 392.276 93.3176C392.032 93.5631 391.701 93.7021 391.356 93.7045Z" fill="black"/>
<path d="M460.347 94.1412H405.961C405.788 94.1424 405.617 94.1094 405.457 94.0441C405.297 93.9788 405.152 93.8825 405.029 93.7607C404.907 93.639 404.809 93.4942 404.743 93.3346C404.677 93.1751 404.642 93.0041 404.642 92.8313C404.642 92.6585 404.677 92.4874 404.743 92.3279C404.809 92.1684 404.907 92.0235 405.029 91.9018C405.152 91.78 405.297 91.6837 405.457 91.6184C405.617 91.5531 405.788 91.5201 405.961 91.5213H460.347C460.519 91.5201 460.691 91.5531 460.851 91.6184C461.011 91.6837 461.156 91.78 461.279 91.9018C461.401 92.0235 461.498 92.1684 461.565 92.3279C461.631 92.4874 461.665 92.6585 461.665 92.8313C461.665 93.0041 461.631 93.1751 461.565 93.3346C461.498 93.4942 461.401 93.639 461.279 93.7607C461.156 93.8825 461.011 93.9788 460.851 94.0441C460.691 94.1094 460.519 94.1424 460.347 94.1412Z" fill="black"/>
<path d="M529.337 94.5778H474.952C474.606 94.5754 474.275 94.4364 474.032 94.1909C473.788 93.9455 473.651 93.6137 473.651 93.2678C473.651 92.9219 473.788 92.59 474.032 92.3446C474.275 92.0992 474.606 91.9601 474.952 91.9578H529.337C529.51 91.9566 529.682 91.9896 529.841 92.0549C530.001 92.1202 530.147 92.2165 530.27 92.3383C530.392 92.4601 530.489 92.6049 530.556 92.7644C530.622 92.9239 530.656 93.095 530.656 93.2678C530.656 93.4406 530.622 93.6116 530.556 93.7712C530.489 93.9307 530.392 94.0755 530.27 94.1973C530.147 94.319 530.001 94.4153 529.841 94.4806C529.682 94.5459 529.51 94.5789 529.337 94.5778Z" fill="black"/>
<path d="M598.328 95.0145H543.943C543.597 95.0122 543.266 94.8731 543.023 94.6277C542.779 94.3823 542.642 94.0504 542.642 93.7045C542.642 93.3586 542.779 93.0268 543.023 92.7813C543.266 92.5359 543.597 92.3969 543.943 92.3945H598.328C598.674 92.3969 599.005 92.5359 599.249 92.7813C599.493 93.0268 599.629 93.3586 599.629 93.7045C599.629 94.0504 599.493 94.3823 599.249 94.6277C599.005 94.8731 598.674 95.0122 598.328 95.0145Z" fill="black"/>
<path d="M364.043 81.6485C369.626 81.6485 374.151 77.1229 374.151 71.5403C374.151 65.9577 369.626 61.4321 364.043 61.4321C358.461 61.4321 353.935 65.9577 353.935 71.5403C353.935 77.1229 358.461 81.6485 364.043 81.6485Z" fill="#E5BA43"/>
<path d="M433.451 81.6485C439.033 81.6485 443.559 77.1229 443.559 71.5403C443.559 65.9577 439.033 61.4321 433.451 61.4321C427.868 61.4321 423.343 65.9577 423.343 71.5403C423.343 77.1229 427.868 81.6485 433.451 81.6485Z" fill="#E5BA43"/>
<path d="M502.859 81.6485C508.441 81.6485 512.967 77.1229 512.967 71.5403C512.967 65.9577 508.441 61.4321 502.859 61.4321C497.276 61.4321 492.751 65.9577 492.751 71.5403C492.751 77.1229 497.276 81.6485 502.859 81.6485Z" fill="#E5BA43"/>
<path d="M572.266 81.6485C577.849 81.6485 582.374 77.1229 582.374 71.5403C582.374 65.9577 577.849 61.4321 572.266 61.4321C566.684 61.4321 562.158 65.9577 562.158 71.5403C562.158 77.1229 566.684 81.6485 572.266 81.6485Z" fill="#E5BA43"/>
</g>
<defs>
<clipPath id="clip0_700_4693">
<rect width="641" height="426" fill="white"/>
</clipPath>
</defs>
</svg>
