<svg width="400" height="400" viewBox="0 0 400 400" fill="none" xmlns="http://www.w3.org/2000/svg">
<path d="M197.692 234.6C197.677 234.97 197.781 235.336 197.988 235.643C198.196 235.951 198.497 236.184 198.846 236.308C207.649 238.939 216.615 240.989 225.686 242.444C226.141 242.47 226.588 242.314 226.929 242.012C227.271 241.71 227.479 241.285 227.508 240.83C227.399 234.71 227.643 228.589 228.24 222.498C242.254 224.554 256.12 226.216 270.204 227.608C272.012 227.882 273.86 227.669 275.558 226.99C289.993 222.919 304.132 217.864 317.876 211.862C320.742 210.65 318.424 207.862 315.62 208.98C302.336 214.49 288.736 219.204 274.892 223.098C273.401 223.66 271.776 223.765 270.224 223.402C257.336 222.274 244.492 220.746 231.692 218.928C255.014 206.268 278.846 193.328 304.252 185.212C309.38 183.572 308.652 177.156 304.274 176.584C283.156 173.657 261.829 172.506 240.518 173.144C236.453 173.316 232.403 173.732 228.388 174.39C201.606 178.478 167.628 187.234 144.016 201.336C142.062 202.504 142.126 202.988 141.518 205.462C136.348 226.546 134.336 267.462 139.352 295.78C139.654 297.492 142.072 296.932 141.952 295.282C141.336 287.482 140.54 279.73 140.264 271.912C139.392 250.013 141.081 228.087 145.296 206.58C145.868 203.72 145.128 204.424 148.18 202.766C171.536 190.076 203.28 181.27 229.24 177.298C233.207 176.737 237.212 176.495 241.218 176.574C258.087 176.162 274.966 176.858 291.744 178.656C265.054 183.538 223.548 197.33 201 214C185.016 211.15 169.278 207.49 153.374 204.56C151.658 204.242 151.334 206.674 152.912 207.16C168.037 211.516 183.395 215.021 198.912 217.66C197.968 223.255 197.559 228.927 197.692 234.6ZM205.208 215.988C211.998 216.179 218.752 217.06 225.364 218.616C226.45 218.92 227.26 221.052 225.222 221.042C218.422 220.959 211.652 220.113 205.04 218.522C202.78 217.928 203.618 216.016 205.2 215.978L205.208 215.988Z" fill="#E5BA43"/>
<path d="M159.564 142.916C160.341 147.009 161.564 151.004 163.212 154.83C163.362 155.117 163.609 155.342 163.909 155.463C164.209 155.585 164.543 155.596 164.85 155.493C165.158 155.391 165.419 155.182 165.586 154.905C165.753 154.628 165.817 154.3 165.764 153.98C164.514 149.966 163.364 145.9 162.58 142.29C167.056 141.11 171.252 139.049 174.923 136.228C178.593 133.407 181.664 129.882 183.956 125.86C188.638 117.574 189.328 107.73 188.886 98.414C188.526 86.5224 185.956 74.8016 181.308 63.85C181.164 63.51 180.893 63.2398 180.553 63.0973C180.212 62.9548 179.829 62.9512 179.486 63.0875C179.143 63.2237 178.867 63.4889 178.717 63.8262C178.567 64.1634 178.555 64.546 178.684 64.892C181.699 73.8335 183.801 83.0572 184.958 92.422C185.84 101.338 186.158 110.902 183.038 119.448C181.2 124.328 178.184 128.677 174.258 132.11C170.333 135.542 165.619 137.951 160.538 139.122C146.738 142.322 133.824 135.658 126.398 123.872C125.614 122.626 123.478 123.8 124.128 125.134C127.402 131.459 132.593 136.586 138.958 139.78C145.324 142.974 152.537 144.072 159.564 142.916Z" fill="#E5BA43"/>
<path d="M166.2 96.364C164.525 93.0803 162.539 89.9648 160.27 87.06C159.32 85.95 157.096 86.87 157.844 88.384C159.612 91.96 161.972 95.224 163.832 98.754C164.554 100.122 164.948 101.42 163.762 102.636C162.36 103.69 160.735 104.408 159.012 104.734C158.699 104.866 158.444 105.104 158.29 105.407C158.137 105.71 158.096 106.057 158.175 106.387C158.254 106.717 158.448 107.008 158.722 107.209C158.996 107.409 159.332 107.506 159.67 107.482C161.904 107.389 164.047 106.574 165.778 105.158C168.848 102.344 167.908 99.446 166.2 96.364Z" fill="#E5BA43"/>
<path d="M144.154 74.05C140.266 73.49 134.852 77.82 133.132 81.004C132.943 81.2855 132.861 81.6255 132.902 81.9622C132.942 82.2989 133.103 82.6098 133.353 82.8382C133.604 83.0666 133.928 83.1973 134.267 83.2064C134.606 83.2156 134.937 83.1026 135.2 82.888C139.984 78.138 142.052 78.556 145 76.662C145.22 76.4696 145.379 76.2169 145.456 75.9353C145.534 75.6536 145.528 75.3553 145.438 75.0773C145.348 74.7993 145.178 74.5538 144.95 74.3712C144.722 74.1887 144.445 74.077 144.154 74.05Z" fill="#E5BA43"/>
<path d="M175.45 71.668C174.19 70.1728 172.457 69.1532 170.538 68.778C168.559 68.2552 166.467 68.3593 164.55 69.0759C164.252 69.2238 164.01 69.4653 163.862 69.7634C163.714 70.0615 163.668 70.3998 163.73 70.7268C163.792 71.0537 163.96 71.3512 164.207 71.5739C164.455 71.7966 164.768 71.9322 165.1 71.96C166.714 71.6509 168.375 71.6747 169.98 72.03C171.292 72.3893 172.542 72.9442 173.688 73.676C173.96 73.8451 174.284 73.9122 174.601 73.8651C174.918 73.818 175.209 73.6598 175.42 73.4188C175.632 73.1778 175.751 72.8695 175.756 72.5489C175.762 72.2282 175.653 71.9161 175.45 71.668Z" fill="#E5BA43"/>
<path d="M169.37 82.2C167.192 83.646 169.328 90.548 172.196 89.33C173.322 88.852 173.752 87.104 173.396 85.436C173.08 83.906 171.074 81.076 169.37 82.2Z" fill="#E5BA43"/>
<path d="M145.63 96.4401C148.05 95.0861 145.994 88.0781 142.8 89.2061C142.159 89.5872 141.666 90.1751 141.403 90.8733C141.139 91.5715 141.122 92.3384 141.352 93.0481C141.672 94.7321 143.8 97.4681 145.63 96.4401Z" fill="#E5BA43"/>
<path d="M164.4 117.15C165.546 116.082 163.848 114.386 162.616 115.164C158.3 117.894 152.996 120.058 148.798 115.892C147.899 114.731 147.163 113.452 146.61 112.092C145.942 110.954 144.42 111.568 144.106 112.61C143.486 114.67 144.994 116.984 146.342 118.39C151.352 123.616 159.6 121.642 164.4 117.15Z" fill="#E5BA43"/>
<path d="M251.254 338.46C251.5 338.217 251.641 337.887 251.649 337.541C251.657 337.196 251.53 336.86 251.295 336.606C251.06 336.352 250.736 336.2 250.391 336.18C250.045 336.161 249.706 336.276 249.444 336.502C228.218 354.902 199.554 348.328 176.362 356.178C175.987 356.287 175.669 356.536 175.473 356.873C175.276 357.21 175.217 357.609 175.307 357.989C175.398 358.368 175.63 358.699 175.957 358.912C176.284 359.124 176.68 359.203 177.064 359.132C202.26 353.96 233.292 356.428 251.254 338.46Z" fill="#E5BA43"/>
<path d="M224.968 337.8C236.768 338.064 252.768 332.388 257.516 321.616C257.656 321.301 257.669 320.944 257.552 320.62C257.434 320.296 257.195 320.031 256.886 319.879C256.576 319.728 256.22 319.703 255.892 319.809C255.564 319.915 255.29 320.144 255.128 320.448C252.239 325.003 247.962 328.509 242.928 330.448C236.943 332.687 230.722 334.236 224.386 335.064C222.692 335.336 223.474 337.766 224.968 337.8Z" fill="#E5BA43"/>
<path d="M223.736 326.6C228.066 327.2 237.336 323.144 241.346 321.09C247.013 318.282 252.12 314.466 256.42 309.828C256.66 309.569 256.79 309.228 256.785 308.876C256.78 308.523 256.639 308.186 256.392 307.935C256.145 307.683 255.811 307.536 255.459 307.525C255.106 307.513 254.763 307.637 254.5 307.872C241.7 318.854 235.668 320.112 223.438 324.122C223.203 324.251 223.012 324.448 222.89 324.687C222.768 324.925 222.719 325.195 222.751 325.461C222.783 325.728 222.894 325.978 223.07 326.181C223.245 326.384 223.477 326.53 223.736 326.6Z" fill="#E5BA43"/>
<path d="M249.732 292.842C250.644 291.37 248.566 290.162 247.532 291.442C235.612 305.996 228.794 306.34 219.77 310.998C218.288 311.762 219.252 313.706 220.712 313.564C228.32 312.814 243 303.728 249.732 292.842Z" fill="#E5BA43"/>
<path d="M199.448 300C194.563 305.136 188.892 309.464 182.648 312.82C181.158 313.544 182.298 315.836 183.808 315.4C190.582 313.438 195.962 308.11 200.926 303.372C205.785 298.265 211.55 294.104 217.926 291.098C219.606 290.264 218.242 288.048 216.682 288.336C210.632 289.442 203.84 295.8 199.448 300Z" fill="#E5BA43"/>
<path d="M373.92 202.96C373.804 201.214 371.078 201.098 371.12 202.938C372.18 244.048 374.186 284.914 372.556 326.082C358.777 334.821 344.332 342.463 329.356 348.938C311.078 356.836 294.92 361.252 276.058 366.482C276.458 336.24 278.554 274.736 274.534 234.282C274.515 233.925 274.357 233.59 274.094 233.348C273.831 233.106 273.483 232.977 273.126 232.989C272.769 233 272.43 233.151 272.183 233.41C271.936 233.668 271.8 234.013 271.804 234.37C272.252 258.05 276.028 323.77 271.784 366.93C248.436 367.602 223.384 362.874 200.414 359.186C198.906 358.944 198.17 361.472 199.72 361.834C222.454 367.247 245.695 370.256 269.058 370.812C271.639 370.919 274.222 370.682 276.74 370.106C294.788 365.558 312.491 359.737 329.716 352.686C344.99 346.173 359.718 338.448 373.76 329.586C375.79 328.308 375.61 328.146 375.688 326.038C377.266 285.009 376.676 243.926 373.92 202.96Z" fill="#E5BA43"/>
<path d="M343.43 313.6C346.112 313.195 348.745 312.511 351.284 311.558C351.668 314.945 351.864 318.35 351.87 321.758C351.87 325.374 350.27 323.484 348.256 322.418C347.996 322.308 347.709 322.277 347.431 322.328C347.153 322.38 346.896 322.511 346.692 322.706C346.488 322.902 346.346 323.153 346.282 323.428C346.219 323.703 346.238 323.991 346.336 324.256C346.884 325.366 347.775 326.27 348.877 326.835C349.978 327.4 351.233 327.596 352.454 327.394C355.19 326.76 355.996 324.358 356.182 321.83C356.434 317.778 356.414 313.713 356.122 309.664C359.377 308.228 362.512 306.535 365.498 304.6C365.81 304.4 366.05 304.105 366.184 303.759C366.318 303.414 366.338 303.034 366.242 302.676C364.606 295.57 356.522 293.606 350.472 296.258C347.549 297.557 345.07 299.681 343.339 302.37C341.607 305.06 340.699 308.196 340.726 311.394C340.838 313.216 341.8 313.764 343.43 313.6Z" fill="#E5BA43"/>
<path d="M113.372 113.486C113.28 112.436 113.306 110.776 111.872 110.772C106.538 110.76 102.99 105.702 102.888 100.69C102.78 95.318 107.288 91.324 112.088 95.322C112.486 95.5788 112.969 95.6708 113.434 95.5786C113.899 95.4865 114.31 95.2173 114.58 94.828C121.191 86.6607 125.878 77.1099 128.294 66.884C146.452 67.756 173.624 64.802 186.928 51.52C194.036 44.426 199.728 31.356 192.092 22.62C177.52 5.936 148.026 14.348 134.032 28.51C132.832 10.568 98.294 12.444 95.632 51.588C84.802 37.074 75.254 51.512 76.338 65.818C78.01 87.858 94.338 112.128 111.604 125.686C113.052 135.368 115.154 147.234 118.878 156.086C119.022 156.371 119.262 156.596 119.556 156.72C119.85 156.844 120.179 156.859 120.483 156.763C120.788 156.666 121.048 156.465 121.217 156.194C121.387 155.924 121.454 155.602 121.408 155.286C118.894 143.838 115.4 136.296 113.372 113.486ZM142.1 32C152.442 22.092 171.946 19.892 180.3 24.324C180.579 24.4592 180.802 24.688 180.929 24.9706C181.057 25.2531 181.081 25.5715 180.998 25.8702C180.915 26.1689 180.73 26.429 180.475 26.6052C180.22 26.7813 179.911 26.8623 179.602 26.834C173.338 26.2947 167.03 26.5676 160.836 27.646C154.735 29.0113 148.85 31.2029 143.342 34.16C141.946 34.844 141.166 32.886 142.1 32Z" fill="#E5BA43"/>
<path d="M219.8 173.4C208.456 166.082 190.884 158.894 172.414 154.442C167.648 168.94 130.062 172.98 110.034 153.862C66.294 169.656 1.82801 226.966 10.854 290.898C18.212 343.016 103.178 386.596 169.654 386.596C170.61 360.312 174.702 324.628 181.538 308.478C144.9 304.978 102.582 287.028 74.994 264.214C74.7383 263.993 74.5784 263.681 74.548 263.344C74.5176 263.007 74.6191 262.672 74.8311 262.408C75.0431 262.145 75.349 261.973 75.6845 261.931C76.0201 261.888 76.359 261.978 76.63 262.18C83.8551 267.463 91.3477 272.37 99.078 276.882C100.212 264.114 108.952 241.948 114.524 231.122C114.673 230.808 114.94 230.566 115.267 230.449C115.595 230.332 115.955 230.35 116.269 230.499C116.583 230.648 116.825 230.915 116.942 231.243C117.059 231.57 117.041 231.93 116.892 232.244C108.72 250.514 107.692 261.516 102.492 278.798C112.867 284.558 123.71 289.432 134.904 293.37C131.142 274.606 131.304 213.182 138.504 200.558C141.414 195.466 181.636 178.13 219.8 173.4Z" fill="black"/>
<path d="M362.238 137.128C337.664 125.418 295.336 137.882 296.318 181.438C296.964 210.16 320.454 227.614 345.736 226.174C368.464 224.88 387.396 208.722 389.764 185.922C390.572 175.97 388.382 166.004 383.477 157.308C378.571 148.612 371.174 141.583 362.238 137.128ZM366.78 166.154C354.236 176.658 345.596 185.908 337.216 200.154C337.054 200.356 336.848 200.518 336.613 200.628C336.379 200.739 336.123 200.794 335.864 200.79C335.605 200.787 335.35 200.724 335.119 200.607C334.888 200.49 334.686 200.322 334.53 200.116C329.146 193.764 323.179 187.931 316.706 182.692C315.438 181.6 316.568 180.092 318.356 180.546C324.292 182.294 329.747 185.381 334.302 189.57C340.814 178.7 353.792 168.37 365.112 162.914C365.534 162.75 366.002 162.748 366.426 162.908C366.849 163.068 367.198 163.38 367.406 163.783C367.613 164.185 367.664 164.651 367.548 165.088C367.433 165.526 367.159 165.906 366.78 166.154Z" fill="black"/>
</svg>
