<svg width="400" height="400" viewBox="0 0 400 400" fill="none" xmlns="http://www.w3.org/2000/svg">
<path d="M69.762 193.818C69.866 197.4 70.134 201.004 70.068 204.586C71.0283 204.408 72.0204 204.563 72.8816 205.023C73.7429 205.483 74.4221 206.223 74.808 207.12L76.38 209.304C77.894 209.094 81.458 208.976 81.664 208.976C82.1608 208.98 82.6494 209.103 83.0899 209.332C83.5303 209.562 83.91 209.893 84.1979 210.298C84.4857 210.703 84.6735 211.17 84.7458 211.662C84.8182 212.154 84.773 212.655 84.614 213.126C84.23 214.17 83.87 215.244 83.5 216.38C83.586 216.402 83.674 216.402 83.762 216.424C84.3695 216.486 84.9522 216.697 85.458 217.039C85.9638 217.382 86.3768 217.844 86.6602 218.385C86.9435 218.926 87.0883 219.529 87.0817 220.139C87.075 220.75 86.9171 221.349 86.622 221.884L86.186 222.998C88.09 223.26 88.942 223.224 89.856 224.22C89.702 213.322 88.938 151.208 88.96 148.63C82.2107 150.729 75.4773 152.891 68.76 155.118C69.688 165.364 69.4 181.378 69.762 193.818Z" fill="black"/>
<path d="M26.824 283.976C26.8237 284.025 26.8331 284.073 26.8516 284.118C26.8702 284.163 26.8975 284.204 26.932 284.238C26.8414 284.627 26.7746 285.021 26.732 285.418C39.552 282.884 54.098 279.98 69.518 276.856C68.736 276.074 69.304 272.832 69.19 264.756C69.136 261 68.906 257.244 68.862 253.486C68.84 253.486 68.84 253.464 68.818 253.464C68.338 254.928 67.904 256.24 67.464 257.506C67.2576 258.138 66.8558 258.688 66.3166 259.076C65.7774 259.465 65.1286 259.672 64.464 259.668C63.378 259.668 62.864 259.268 59.2 257.396C58.83 258.396 58.458 259.492 58.066 260.65C57.8492 261.281 57.4439 261.831 56.9049 262.224C56.3659 262.617 55.7192 262.836 55.052 262.85C53.962 262.85 53.452 262.398 52.3 261.65C51.0234 260.843 49.7909 259.967 48.608 259.028L42.952 259.814C42.3618 259.893 41.7612 259.814 41.2121 259.583C40.663 259.353 40.1852 258.981 39.828 258.504C38.828 257.146 39.392 255.95 39.828 254.616C39.0516 254.655 38.2836 254.439 37.641 254.002C36.9984 253.564 36.5163 252.929 36.268 252.192C36.1389 251.469 36.161 250.727 36.3331 250.012C36.5053 249.298 36.8236 248.627 37.268 248.042L37.572 247.43C36.962 247.278 36.35 247.084 35.76 246.884C35.3578 246.756 34.986 246.547 34.6671 246.27C34.3482 245.994 34.0889 245.655 33.905 245.275C33.7211 244.895 33.6164 244.482 33.5973 244.06C33.5782 243.638 33.6452 243.217 33.794 242.822C34.318 241.556 34.864 240.29 35.41 239.022C34.296 238.52 33.226 237.998 32.178 237.45C31.7582 237.223 31.3969 236.901 31.1223 236.511C30.8477 236.12 30.6674 235.672 30.5955 235.2C30.5236 234.728 30.5621 234.246 30.7079 233.791C30.8537 233.337 31.103 232.922 31.436 232.58C32.5658 231.274 33.7769 230.041 35.062 228.888C35.084 227.512 35.122 226.136 35.17 224.804C35.1918 224.012 35.5207 223.259 36.0872 222.705C36.6537 222.151 37.4135 221.838 38.206 221.834C39.5979 222.085 40.97 222.436 42.312 222.882L43.622 218.732C43.8231 218.099 44.2185 217.546 44.7521 217.151C45.2856 216.756 45.9302 216.54 46.594 216.532C47.7338 216.71 48.8432 217.047 49.89 217.532L50.7 214.67C50.8859 214.005 51.2862 213.42 51.8388 213.005C52.3913 212.591 53.0653 212.37 53.756 212.378C55.4142 212.572 57.0515 212.916 58.648 213.404C58.752 212.884 58.928 212.204 59.648 209.472C59.7751 209 60.0092 208.564 60.3322 208.197C60.6552 207.83 61.0583 207.543 61.5103 207.357C61.9624 207.171 62.4511 207.092 62.9387 207.125C63.4263 207.159 63.8997 207.304 64.322 207.55L66.746 208.97C68.118 206.224 67.978 205.924 68.798 205.258C67.524 204.164 67.446 161.908 67.138 155.766C59.16 158.416 27.298 169.532 26.738 169.614C26.152 169.708 26.518 166.176 26.824 283.976Z" fill="black"/>
<path d="M71.116 270.762C71.2586 272.697 71.0967 274.643 70.636 276.528C70.448 276.904 155.486 258.476 172.52 254.47C171.32 252.87 175.844 250.318 210.764 198.646C191.364 177.846 157.722 152.63 146.574 137.886C146.114 137.286 147.076 136.662 147.574 137.122C152.374 141.51 156.83 146.298 161.594 150.722C174.362 162.592 187.978 173.61 200.69 185.578C200.69 184.63 203.408 183.216 244.458 159.218C245.904 158.248 247.458 157.449 249.088 156.836C249.213 156.795 249.346 156.79 249.473 156.821C249.6 156.853 249.716 156.918 249.808 157.012C249.808 156.75 249.786 156.466 249.786 156.212C249.786 155.612 251.806 156.256 207.83 146.078C184.096 140.584 162.864 134.854 143.38 133.89C144.53 146.726 147.98 249.436 147.334 255.564C147.334 255.77 147.252 255.967 147.107 256.113C146.961 256.258 146.764 256.34 146.558 256.34C146.352 256.34 146.155 256.258 146.009 256.113C145.864 255.967 145.782 255.77 145.782 255.564C145.424 252.86 141.982 133.708 141.83 134.022C141.536 134.622 141.414 134.498 140.738 134.656C122.162 138.974 107.558 142.98 90.636 148.108C90.836 153.048 92.12 261.25 91.946 264.908C91.946 265.108 91.8666 265.3 91.7252 265.441C91.5838 265.582 91.392 265.662 91.192 265.662C90.992 265.662 90.8002 265.582 90.6588 265.441C90.5174 265.3 90.438 265.108 90.438 264.908C90.196 261.524 90.238 260.352 90.09 245.426C88.394 246.664 87.202 245.826 85.132 245.404C85.1066 246.5 85.0191 247.594 84.87 248.68C84.796 249.117 84.6286 249.534 84.3792 249.901C84.1298 250.268 83.8043 250.577 83.4247 250.807C83.0452 251.037 82.6205 251.183 82.1797 251.234C81.7388 251.285 81.2922 251.241 80.87 251.104L77.47 249.99C77.23 251.06 76.95 252.11 76.618 253.136C76.4806 253.569 76.2515 253.967 75.9461 254.303C75.6408 254.639 75.2664 254.906 74.8487 255.084C74.431 255.262 73.9797 255.348 73.5257 255.336C73.0717 255.324 72.6256 255.214 72.218 255.014C71.538 254.714 70.842 254.38 70.144 254.052C70.8463 259.593 71.171 265.176 71.116 270.762Z" fill="black"/>
<path d="M242.476 218.738C242.44 215.58 242.17 212.428 244.048 209.538C245.695 207.297 247.944 205.57 250.534 204.558C250.492 195.058 250.032 164.132 249.88 158.192C248.934 159.094 251.63 157.582 211.004 181.102C210.804 181.218 202.474 186.212 201.404 186.212C205.359 189.945 209.195 193.804 212.914 197.788C213.077 197.955 213.183 198.171 213.214 198.403C213.245 198.635 213.201 198.871 213.088 199.076C212.088 200.558 179.826 247.476 174.388 254.048C189.698 250.448 235.126 238.978 243.188 236.816C242.782 230.554 242.542 224.44 242.476 218.738ZM232.756 239.422C231.291 239.205 229.903 238.627 228.716 237.74C203.93 223.11 202.882 222.844 200.17 220.574C200.092 220.492 200.042 220.386 200.029 220.274C200.015 220.161 200.039 220.047 200.095 219.949C200.152 219.85 200.239 219.773 200.343 219.728C200.448 219.683 200.564 219.673 200.674 219.7C203.582 220.931 206.38 222.407 209.038 224.112C233.058 237.946 232.268 237.41 233.106 238.744C233.151 238.808 233.177 238.884 233.182 238.962C233.187 239.04 233.171 239.118 233.135 239.188C233.099 239.258 233.045 239.316 232.978 239.358C232.911 239.399 232.834 239.421 232.756 239.422Z" fill="black"/>
<path d="M132.946 176.434C132.304 165.896 132.626 157.52 131.526 151.536C131.262 150.096 126.62 151.442 123.882 151.994C117.076 153.277 110.353 154.962 103.746 157.04C103.642 157.004 103.532 156.992 103.423 157.005C103.314 157.018 103.21 157.055 103.117 157.114C103.025 157.173 102.947 157.252 102.889 157.345C102.831 157.438 102.795 157.543 102.784 157.652C102.454 161.512 104.15 182.524 104.488 186.392C104.493 186.515 104.524 186.636 104.581 186.746C104.638 186.856 104.718 186.952 104.816 187.027C104.914 187.102 105.027 187.155 105.148 187.182C105.269 187.208 105.394 187.207 105.514 187.18C106.608 186.944 129.604 182.302 131.942 180.932C132.037 180.872 132.117 180.792 132.176 180.698C132.235 180.603 132.273 180.496 132.285 180.385C132.298 180.274 132.285 180.162 132.248 180.056C132.211 179.951 132.151 179.855 132.072 179.776C132.22 179.83 132.383 179.826 132.529 179.766C132.675 179.705 132.792 179.591 132.858 179.448C133.132 178.465 133.162 177.431 132.946 176.434ZM131.546 179.536C130.298 179.536 130.146 179.828 124.622 181.216C119.716 182.45 111.048 184.416 106.036 185.416C106.036 185.216 104.582 160.386 104.18 158.028C109.426 157.584 112.798 156.33 123.794 154.054C125.89 153.62 128.162 153.442 130.214 152.83C130.18 156.258 130.952 174.03 131.088 176.244C130.993 177.332 131.166 178.426 131.59 179.432C131.696 179.632 131.8 179.532 131.548 179.536H131.546Z" fill="#E5BA43"/>
<path d="M123.8 156.668C123.69 156.562 123.554 156.486 123.406 156.449C123.257 156.411 123.102 156.412 122.955 156.453C122.807 156.493 122.672 156.571 122.564 156.679C122.456 156.787 122.377 156.921 122.336 157.068C121.534 158.948 120.607 160.772 119.562 162.528C119.104 163.062 118.786 163.328 118.95 163.948C119.034 164.206 119.209 164.424 119.443 164.56C119.676 164.697 119.952 164.743 120.218 164.69C120.632 164.624 121.048 164.536 121.462 164.472C121.501 167.666 121.748 170.854 122.204 174.016C122.232 174.123 122.281 174.223 122.347 174.312C122.414 174.4 122.498 174.474 122.593 174.529C122.689 174.585 122.794 174.622 122.904 174.636C123.014 174.651 123.125 174.644 123.232 174.616C124.32 174.322 125.396 174.032 126.486 173.676C126.658 173.628 126.809 173.525 126.917 173.383C127.026 173.241 127.085 173.068 127.086 172.89C126.93 169.812 126.518 166.752 126.474 163.674L127.412 163.542C127.6 163.533 127.781 163.47 127.935 163.362C128.09 163.254 128.21 163.105 128.283 162.932C128.356 162.758 128.379 162.568 128.349 162.382C128.319 162.196 128.236 162.023 128.112 161.882C126.64 160.136 125.278 158.352 123.8 156.668Z" fill="#E5BA43"/>
<path d="M110.56 177.2C111.65 176.908 112.724 176.618 113.814 176.262C113.986 176.213 114.137 176.11 114.246 175.968C114.354 175.826 114.413 175.653 114.414 175.474C114.26 172.474 113.868 169.512 113.802 166.52C114.152 166.476 114.502 166.412 114.872 166.368C115.06 166.359 115.241 166.296 115.395 166.188C115.55 166.08 115.67 165.931 115.743 165.758C115.816 165.584 115.839 165.394 115.809 165.208C115.778 165.023 115.696 164.849 115.572 164.708C114.134 163 112.772 161.214 111.29 159.532C111.18 159.426 111.044 159.35 110.896 159.313C110.748 159.275 110.593 159.276 110.445 159.316C110.298 159.357 110.164 159.435 110.055 159.543C109.947 159.651 109.869 159.785 109.828 159.932C109.027 161.812 108.1 163.636 107.054 165.392C106.596 165.926 106.278 166.192 106.442 166.812C106.524 167.07 106.699 167.289 106.933 167.426C107.167 167.562 107.443 167.608 107.708 167.554C108.08 167.492 108.452 167.424 108.844 167.354C108.897 170.46 109.145 173.561 109.586 176.636C109.576 177.068 110.166 177.304 110.56 177.2Z" fill="#E5BA43"/>
<path d="M126.482 175.516C123.574 176.182 114.97 178.264 113.552 178.596C112.167 178.718 110.84 179.209 109.708 180.016C109.626 180.104 109.568 180.21 109.539 180.326C109.51 180.442 109.511 180.564 109.542 180.68C109.572 180.795 109.632 180.901 109.714 180.988C109.797 181.074 109.9 181.138 110.014 181.174C111.409 181.433 112.848 181.319 114.186 180.846C117.876 180.106 123.52 178.894 127.186 177.918C128.69 177.516 128.03 175.162 126.482 175.516Z" fill="#E5BA43"/>
<path d="M89.33 233.8C89.4104 233.667 89.4586 233.517 89.471 233.362C89.4834 233.207 89.4595 233.052 89.4013 232.908C89.343 232.764 89.2521 232.635 89.1355 232.533C89.019 232.43 88.8802 232.356 88.73 232.316C87.73 232.084 86.72 231.792 85.716 231.486C86.61 229.956 87.516 228.452 88.38 226.92C88.456 226.788 88.5007 226.64 88.5108 226.488C88.5209 226.336 88.496 226.183 88.4381 226.042C88.3802 225.901 88.2908 225.775 88.1768 225.674C88.0627 225.572 87.927 225.499 87.78 225.458C86.25 225.246 84.7 225.02 83.18 224.802C83.66 223.58 84.144 222.358 84.622 221.134C85.598 218.626 83.674 218.644 80.974 218.206C80.886 218.184 80.8 218.184 80.712 218.162C81.2252 216.215 81.8448 214.297 82.568 212.418C82.6059 212.274 82.6103 212.124 82.581 211.978C82.5516 211.832 82.4893 211.695 82.3987 211.577C82.3082 211.459 82.1918 211.363 82.0586 211.297C81.9253 211.231 81.7787 211.197 81.63 211.196C79.5511 211.191 77.4761 211.374 75.43 211.742C75.408 211.72 75.408 211.698 75.386 211.676C74.6 210.584 73.806 209.498 73.028 208.422C72.428 207.596 72.002 206.758 70.91 206.674C69.85 206.594 70.162 207.674 67.678 211.982C66.214 211.13 64.744 210.288 63.288 209.426C63.157 209.351 63.0106 209.308 62.8602 209.299C62.7097 209.289 62.5591 209.315 62.42 209.373C62.2808 209.43 62.1567 209.519 62.0572 209.633C61.9577 209.746 61.8855 209.881 61.846 210.026C61.568 211.12 61.28 212.188 60.994 213.28C60.776 214.11 60.644 215.136 60.338 215.988C60.088 215.92 56.244 215.028 54.092 214.57C53.8435 214.507 53.5804 214.543 53.3571 214.668C53.1338 214.794 52.9673 215.001 52.892 215.246C52.38 217.034 51.892 218.828 51.362 220.618C49.9483 219.828 48.4545 219.191 46.906 218.718C46.7885 218.686 46.6657 218.678 46.5449 218.693C46.4242 218.709 46.3077 218.749 46.2022 218.81C46.0968 218.871 46.0045 218.952 45.9306 219.049C45.8568 219.146 45.8029 219.256 45.772 219.374C45.158 221.462 44.46 223.502 43.828 225.574C42.058 225.05 40.286 224.536 38.498 224.046C38.3713 224.012 38.2385 224.008 38.11 224.034C37.9814 224.06 37.8606 224.115 37.757 224.195C37.6534 224.276 37.5697 224.379 37.5127 224.497C37.4556 224.615 37.4266 224.745 37.428 224.876C37.396 226.58 37.298 229.964 37.298 229.986C35.7599 231.211 34.3476 232.587 33.082 234.092C32.9843 234.192 32.9102 234.312 32.8653 234.444C32.8204 234.576 32.8057 234.716 32.8225 234.855C32.8392 234.993 32.8868 235.126 32.9618 235.244C33.0369 235.361 33.1374 235.461 33.256 235.534C34.9149 236.421 36.6215 237.215 38.368 237.914C37.494 239.814 36.646 241.714 35.856 243.658C35.7944 243.898 35.8281 244.153 35.95 244.369C36.0719 244.584 36.2726 244.745 36.51 244.816C37.9242 245.293 39.3799 245.636 40.858 245.842C40.334 246.912 39.804 247.958 39.258 249.032C38.796 249.946 37.644 251.518 38.996 252.22C39.48 252.47 39.616 252.348 41.996 252.592C42.2659 252.645 42.5329 252.712 42.796 252.792C42.722 253.004 41.628 256.27 41.552 256.504C41.312 257.248 42.054 257.704 42.666 257.618C44.892 257.306 47.1 257.018 49.328 256.702C50.9863 258.106 52.7532 259.377 54.612 260.502C54.7397 260.575 54.8822 260.618 55.0288 260.628C55.1754 260.638 55.3224 260.615 55.4588 260.56C55.5952 260.505 55.7176 260.421 55.8168 260.312C55.9161 260.204 55.9896 260.075 56.032 259.934C56.684 258.062 57.32 256.178 58.02 254.32C60.008 255.348 61.99 256.36 64.004 257.378C64.1305 257.449 64.2715 257.491 64.4163 257.5C64.5612 257.509 64.7063 257.486 64.8408 257.431C64.9753 257.377 65.0958 257.292 65.1933 257.185C65.2908 257.077 65.3628 256.949 65.404 256.81C66.122 254.662 66.846 252.53 67.522 250.368C69.4 251.328 71.302 252.266 73.222 253.12C73.35 253.191 73.4923 253.233 73.6385 253.243C73.7848 253.252 73.9314 253.229 74.0675 253.175C74.2036 253.12 74.3258 253.036 74.4252 252.928C74.5246 252.821 74.5987 252.692 74.642 252.552C75.2075 250.823 75.6172 249.046 75.866 247.244C77.81 247.878 79.738 248.49 81.666 249.144C81.9063 249.21 82.1628 249.178 82.3797 249.056C82.5966 248.933 82.7563 248.73 82.824 248.49C83.091 246.653 83.1426 244.791 82.978 242.942C84.6863 243.135 86.3742 243.478 88.022 243.968C88.702 244.182 89.552 243.444 89.268 242.724C88.612 241.064 87.892 239.426 87.214 237.766C87.214 237.744 86.886 236.848 86.864 237.11C86.886 236.848 87.436 236.37 87.608 236.128C88.16 235.344 88.746 234.576 89.33 233.8ZM74.064 245.944C73.8848 247.636 73.5562 249.31 73.082 250.944C71.182 250.07 69.282 249.144 67.424 248.192C67.2976 248.12 67.1566 248.078 67.0116 248.069C66.8666 248.06 66.7214 248.083 66.5867 248.138C66.4521 248.192 66.3315 248.277 66.2341 248.384C66.1367 248.492 66.0648 248.621 66.024 248.76C65.3493 250.916 64.6427 253.063 63.904 255.202C61.918 254.176 59.932 253.168 57.964 252.144C57.8359 252.073 57.6937 252.032 57.5476 252.023C57.4015 252.014 57.2553 252.037 57.1194 252.092C56.9835 252.146 56.8614 252.23 56.7619 252.337C56.6624 252.444 56.588 252.572 56.544 252.712C55.828 254.517 55.1653 256.337 54.556 258.172C53.3078 257.311 52.0102 256.524 50.67 255.814C50.6653 255.673 50.6316 255.534 50.5708 255.407C50.5101 255.28 50.4237 255.166 50.317 255.074C50.2103 254.981 50.0857 254.912 49.951 254.87C49.8162 254.828 49.6743 254.814 49.534 254.83C47.61 255.086 45.668 255.356 43.746 255.618C43.964 255.006 44.162 254.394 44.38 253.76C44.62 253.062 45.128 252.184 44.642 251.49C44.042 250.638 41.722 250.8 40.426 250.638C40.792 249.784 40.468 250.672 43.09 245.484C43.1677 245.342 43.2077 245.183 43.2063 245.021C43.2048 244.859 43.1619 244.701 43.0817 244.56C43.0014 244.42 42.8865 244.302 42.7479 244.219C42.6093 244.136 42.4517 244.089 42.29 244.084C40.8473 243.962 39.4206 243.694 38.032 243.284C38.796 241.448 39.578 239.656 40.432 237.866C40.5017 237.744 40.5429 237.608 40.5524 237.468C40.562 237.327 40.5396 237.187 40.4871 237.057C40.4346 236.926 40.3532 236.81 40.2491 236.715C40.145 236.621 40.0208 236.551 39.886 236.512C38.308 235.912 36.784 235.202 35.286 234.46C35.708 234.03 38.666 231.126 38.78 229.938C38.906 228.628 38.998 227.318 39.086 226.008C40.79 226.576 42.518 227.092 44.218 227.608C44.3357 227.64 44.4584 227.648 44.5793 227.632C44.7001 227.616 44.8167 227.577 44.9222 227.516C45.0277 227.455 45.1202 227.374 45.1943 227.277C45.2684 227.18 45.3227 227.07 45.354 226.952C45.966 224.886 46.642 222.846 47.298 220.794C48.7766 221.341 50.1862 222.059 51.498 222.934C51.6256 223.007 51.7681 223.05 51.9149 223.061C52.0616 223.071 52.2087 223.048 52.3452 222.993C52.4818 222.938 52.6042 222.854 52.7034 222.745C52.8026 222.637 52.8759 222.507 52.918 222.366C53.448 220.462 54.01 218.566 54.534 216.666C55.626 216.906 56.734 217.162 57.832 217.408C58.772 217.622 60.432 218.37 61.37 217.91C62.308 217.45 62.42 215.684 62.658 214.788C62.924 213.788 63.182 212.788 63.444 211.774C64.82 212.574 66.196 213.39 67.572 214.174C67.7996 214.3 68.0669 214.334 68.3188 214.269C68.5707 214.204 68.7881 214.045 68.926 213.824C69.7915 212.36 70.5786 210.851 71.284 209.304C73.502 212.408 73.084 211.79 73.684 212.646C73.8273 212.849 74.0412 212.992 74.284 213.046C74.732 213.646 79.864 213.222 80.182 213.2C79.744 214.378 79.328 215.58 78.958 216.8C78.63 217.892 77.974 219.382 79.418 219.946C80.1365 220.151 80.8734 220.285 81.618 220.346C81.9 220.394 82.294 220.498 82.618 220.546C82.2881 221.233 82.0249 221.949 81.832 222.686C81.49 223.584 81.138 224.458 80.806 225.35C80.7373 225.605 80.7721 225.877 80.9028 226.106C81.0336 226.335 81.2497 226.503 81.504 226.574C82.968 226.774 84.43 226.988 85.904 227.206C85.052 228.67 84.184 230.136 83.326 231.606C83.2483 231.74 83.2025 231.891 83.1921 232.046C83.1818 232.201 83.2071 232.356 83.2663 232.5C83.3254 232.643 83.4167 232.771 83.5332 232.874C83.6497 232.977 83.7882 233.051 83.938 233.092C84.88 233.392 85.794 233.66 86.738 233.922C86.338 234.424 85.974 234.922 85.58 235.428C85.034 236.128 84.63 236.648 84.904 237.548C85.3476 238.924 85.8876 240.266 86.52 241.566C85.2747 241.299 84.008 241.088 82.72 240.932C82.5881 240.912 82.4533 240.924 82.327 240.967C82.2008 241.011 82.0868 241.084 81.9946 241.18C81.9025 241.276 81.8348 241.394 81.7975 241.522C81.7601 241.65 81.7541 241.785 81.78 241.916C80.496 242.05 81.438 243.21 81.082 246.96C79.138 246.328 77.22 245.658 75.282 245.038C75.1407 245.006 74.9942 245.005 74.8526 245.036C74.711 245.066 74.5777 245.127 74.4619 245.214C74.3461 245.301 74.2505 245.412 74.1818 245.539C74.1131 245.667 74.0729 245.807 74.064 245.952V245.944Z" fill="#E5BA43"/>
<path d="M63.276 228.152C65.2199 227.448 67.0741 226.517 68.8 225.378C69.544 224.79 68.714 223.812 67.97 223.958C66.107 224.499 64.312 225.251 62.62 226.2C56.706 228.92 54.544 229.828 52.29 231.136C50.7907 232.052 49.2372 232.876 47.638 233.604C46.982 233.886 47.288 235.094 48.008 235.004C50.518 234.688 49.566 234.4 63.276 228.152Z" fill="#E5BA43"/>
<path d="M66.442 232.672C70.442 230.908 71.018 230.85 71.772 230.008C71.8634 229.912 71.9249 229.791 71.949 229.66C71.9731 229.53 71.9587 229.395 71.9077 229.272C71.8567 229.15 71.7711 229.045 71.6615 228.97C71.5518 228.895 71.4228 228.853 71.29 228.85C70.3136 228.925 69.366 229.216 68.516 229.702C61.9611 232.304 55.7312 235.66 49.952 239.702C49.45 240.102 50.086 240.756 50.586 240.532C56.146 238.038 57.022 236.834 66.442 232.672Z" fill="#E5BA43"/>
<path d="M72.928 233.218C71.86 233.064 72.154 232.978 62.184 238.374C58.4147 240.319 54.7679 242.492 51.264 244.882C51.1376 244.969 51.0483 245.1 51.0135 245.25C50.9788 245.399 51.0012 245.557 51.0763 245.69C51.1514 245.824 51.2738 245.925 51.4195 245.974C51.5652 246.022 51.7237 246.014 51.864 245.952C56.464 243.976 58.664 242.406 71.018 235.84C71.9405 235.523 72.742 234.928 73.312 234.136C73.452 233.8 73.344 233.28 72.928 233.218Z" fill="#E5BA43"/>
<path d="M388.326 349.2C386.568 350.678 384.319 351.44 382.025 351.335C379.731 351.23 377.561 350.266 375.945 348.634C374.33 347.002 373.388 344.822 373.307 342.527C373.225 340.232 374.01 337.99 375.506 336.248C375.657 336.08 375.758 335.872 375.796 335.648C375.834 335.425 375.808 335.196 375.721 334.986C375.635 334.777 375.49 334.597 375.305 334.466C375.12 334.336 374.902 334.26 374.676 334.248C368.404 333.983 362.193 335.563 356.81 338.792C351.9 341.768 348.048 346.146 343.21 349.232C338.314 352.348 332.154 353.056 328.314 347.878C324.204 342.332 326.102 335.168 329.668 329.902C329.768 329.724 329.821 329.523 329.821 329.319C329.821 329.114 329.768 328.914 329.667 328.736C329.567 328.558 329.422 328.409 329.247 328.304C329.072 328.198 328.872 328.14 328.668 328.134C323.863 327.95 319.073 328.763 314.598 330.522C310.123 332.281 306.061 334.948 302.668 338.354C299.528 341.526 296.974 345.286 293.468 348.096C289.782 351.052 284.79 351.792 281.542 347.746C277.408 342.598 279.64 335.7 282.342 330.492C282.44 330.318 282.49 330.121 282.49 329.922C282.489 329.722 282.437 329.526 282.338 329.352C282.239 329.178 282.097 329.033 281.926 328.931C281.755 328.828 281.56 328.771 281.36 328.766C276.554 328.257 271.701 329.087 267.338 331.165C262.974 333.243 259.27 336.487 256.636 340.538C253.932 344.494 251.502 349.426 246.874 351.416C244.504 352.465 241.838 352.631 239.356 351.885C236.875 351.138 234.742 349.529 233.344 347.347C231.946 345.165 231.374 342.556 231.732 339.989C232.091 337.423 233.356 335.069 235.298 333.354C235.44 333.209 235.542 333.029 235.594 332.832C235.646 332.635 235.645 332.429 235.592 332.232C235.539 332.036 235.436 331.857 235.292 331.713C235.149 331.568 234.97 331.464 234.774 331.41C229.284 330.205 223.547 330.898 218.502 333.376C208.77 338.208 205.126 349.832 196.838 353.294C194.307 354.261 191.526 354.356 188.935 353.565C186.344 352.774 184.091 351.142 182.532 348.926C178.356 343.294 179.634 335.308 183.776 330.034C183.937 329.868 184.047 329.658 184.092 329.431C184.136 329.203 184.114 328.968 184.028 328.752C183.941 328.537 183.795 328.352 183.605 328.218C183.416 328.085 183.192 328.009 182.96 328C177.228 327.328 171.446 328.739 166.668 331.976C157.178 338.444 154.836 351.938 145.134 353.99C142.341 354.619 139.413 354.172 136.934 352.739C134.455 351.306 132.607 348.992 131.758 346.258C130.908 343.523 131.12 340.569 132.351 337.984C133.582 335.399 135.742 333.372 138.4 332.308C138.619 332.24 138.814 332.111 138.962 331.935C139.11 331.76 139.205 331.546 139.235 331.318C139.265 331.091 139.229 330.859 139.131 330.651C139.033 330.444 138.878 330.268 138.684 330.146C128.376 324.596 116.798 330.69 109.462 338.25C100.018 347.98 95.626 357.822 90.062 355.59C87.396 354.52 85.874 351.548 84.972 349.016C82.5586 342.16 82.935 334.631 86.02 328.05C86.35 327.352 85.976 326.21 85.02 326.302C62.492 328.482 54.66 360.68 32 359.654C30.974 359.606 31.04 361.09 32 361.204C43 362.506 52.136 354.388 59.104 346.898C65.808 339.698 73.016 330.802 83.15 328.898C81.1082 334.096 80.5488 339.759 81.534 345.256C82.396 350.056 84.734 356.876 90.182 358.142C99.408 360.288 104.484 343.12 117.396 334.598C122.618 331.152 129.408 329.16 135.414 331.3C126.64 337.064 126.4 350.668 137.184 355.368C139.69 356.462 142.461 356.801 145.157 356.344C147.853 355.886 150.357 354.652 152.362 352.792C156.762 348.952 159.198 343.42 162.78 338.878C164.905 336.139 167.641 333.935 170.769 332.441C173.898 330.948 177.332 330.207 180.798 330.278C179.361 332.447 178.385 334.889 177.931 337.451C177.476 340.013 177.553 342.641 178.156 345.172C178.886 347.852 180.317 350.288 182.302 352.231C184.287 354.173 186.753 355.552 189.448 356.224C201.048 358.934 206.986 346.526 213.756 339.756C216.133 337.355 219.028 335.53 222.22 334.42C225.411 333.311 228.814 332.947 232.168 333.356C230.933 335.003 230.083 336.904 229.678 338.922C229.274 340.94 229.325 343.023 229.83 345.018C230.512 347.335 231.812 349.422 233.59 351.056C235.368 352.69 237.557 353.809 239.922 354.294C242.288 354.779 244.741 354.611 247.018 353.808C249.296 353.005 251.312 351.597 252.85 349.736C256.538 345.67 258.678 340.426 262.85 336.736C267.468 332.716 273.463 330.641 279.578 330.948C277.46 335.404 275.978 340.516 277.614 345.32C278.229 347.474 279.512 349.377 281.279 350.755C283.045 352.132 285.203 352.914 287.442 352.986C296.414 352.858 300.962 341 310.264 335.316C315.17 332.33 320.773 330.681 326.514 330.534C324.1 334.464 323.17 339.127 323.892 343.682C324.299 345.899 325.267 347.975 326.705 349.711C328.143 351.447 330.002 352.785 332.104 353.598C341.562 356.876 349.226 347.02 355.954 342.198C360.789 338.743 366.547 336.812 372.488 336.652C371.165 338.955 370.686 341.648 371.133 344.266C371.58 346.884 372.925 349.265 374.937 350.999C376.948 352.733 379.502 353.713 382.157 353.769C384.813 353.825 387.405 352.954 389.488 351.306C390.718 350.342 389.528 348.274 388.326 349.2Z" fill="black"/>
<path d="M326.452 222.954C326.252 222.154 324.852 222.298 324.968 223.154C326.968 238.682 327.098 239.988 327.414 243.422C331.314 285.912 323.388 312.14 320.414 327.596C320.365 327.778 320.39 327.973 320.485 328.137C320.579 328.3 320.735 328.42 320.917 328.469C321.099 328.518 321.294 328.493 321.458 328.398C321.621 328.304 321.741 328.148 321.79 327.966C331.12 303.288 334.52 255.668 326.452 222.954Z" fill="#E5BA43"/>
<path d="M276.83 144.372C273.028 146.109 269.485 148.366 266.304 151.078C264.511 152.175 263.219 153.931 262.704 155.97C262.592 157.044 263.444 185.634 264.504 197.64C264.504 197.808 264.571 197.969 264.69 198.088C264.809 198.207 264.97 198.274 265.138 198.274C265.306 198.274 265.467 198.207 265.586 198.088C265.705 197.969 265.772 197.808 265.772 197.64C266.098 185.546 265.464 173.142 265.182 158.64C265.122 155.57 264.382 155.47 270.074 151.258C278.28 145.174 288.383 142.208 298.576 142.892C304.408 143.292 311.92 145.204 316.376 148.506C318.016 149.503 319.199 151.103 319.674 152.962C319.97 155.194 320.562 181.332 321.006 184.696C321.006 184.936 321.101 185.167 321.271 185.337C321.441 185.506 321.672 185.602 321.912 185.602C322.152 185.602 322.383 185.506 322.553 185.337C322.723 185.167 322.818 184.936 322.818 184.696C323.158 180.864 322.462 159.766 322.252 154.338C322.292 152.256 321.56 150.233 320.198 148.658C314.118 141.648 294.362 136.41 276.83 144.372Z" fill="#E5BA43"/>
<path d="M266.632 162.216C266.062 162.586 266.414 163.592 267.112 163.352C281.884 158.264 293.388 154.34 311.776 157.782C313.612 158.126 315.402 158.566 317.28 158.744C317.486 158.738 317.684 158.666 317.845 158.539C318.007 158.412 318.123 158.236 318.177 158.037C318.231 157.839 318.219 157.628 318.144 157.437C318.069 157.245 317.934 157.083 317.76 156.974C307.558 152.276 280.6 153.14 266.632 162.216Z" fill="#E5BA43"/>
<path d="M171 67.078C169.387 70.0286 168.676 73.388 168.955 76.739C169.235 80.0901 170.492 83.2854 172.572 85.928C174.295 88.0414 176.5 89.7096 179.003 90.7916C181.505 91.8736 184.232 92.3378 186.951 92.1451C189.671 91.9523 192.304 91.1082 194.629 89.684C196.954 88.2598 198.903 86.2973 200.31 83.962C201.265 87.0583 202.974 89.8689 205.284 92.1415C207.593 94.4141 210.431 96.0775 213.542 96.9824C216.654 97.8873 219.941 98.0054 223.109 97.326C226.277 96.6466 229.227 95.1911 231.694 93.09C233.038 95.3079 235.127 96.9759 237.587 97.7961C240.048 98.6164 242.72 98.5355 245.126 97.568C246.112 97.18 245.694 95.556 244.69 95.952C242.448 96.6819 240.017 96.565 237.856 95.6234C235.695 94.6817 233.954 92.9807 232.962 90.842C232.879 90.7014 232.764 90.5817 232.628 90.4917C232.492 90.4018 232.337 90.344 232.175 90.3228C232.012 90.3017 231.848 90.3176 231.693 90.3694C231.538 90.4212 231.397 90.5076 231.28 90.622C228.982 92.9109 226.089 94.5118 222.93 95.244C219.77 95.9762 216.468 95.8106 213.397 94.7659C210.326 93.7211 207.609 91.8389 205.551 89.3315C203.493 86.8242 202.178 83.7916 201.752 80.576C201.578 79.418 200.026 79.724 199.698 80.576C198.93 82.5781 197.738 84.3901 196.203 85.8872C194.668 87.3843 192.827 88.5309 190.806 89.2481C188.785 89.9653 186.633 90.236 184.498 90.0416C182.362 89.8471 180.295 89.1922 178.437 88.1219C176.579 87.0516 174.975 85.5913 173.735 83.8416C172.496 82.092 171.65 80.0944 171.257 77.9866C170.864 75.8788 170.932 73.7107 171.457 71.6318C171.982 69.5528 172.951 67.6124 174.298 65.944C174.886 65.222 174.364 63.758 173.272 64.174C160.608 68.99 152.424 60.906 155.842 52.708C157.849 48.4243 161.19 44.907 165.366 42.684C167.498 41.5762 169.849 40.9528 172.25 40.8584C174.651 40.764 177.043 41.201 179.256 42.138C184.582 44.156 188.924 48.082 193.056 51.856C193.604 52.356 194.8 52.256 194.914 51.376C195.654 45.628 201.514 42.046 207.034 42.53C213.478 43.094 218.586 48.078 221.58 53.45C223.402 56.9003 224.838 60.5409 225.862 64.306C225.916 64.4918 226.017 64.6605 226.156 64.7953C226.294 64.9301 226.466 65.0265 226.653 65.075C226.84 65.1234 227.037 65.1222 227.224 65.0716C227.411 65.0209 227.581 64.9225 227.718 64.786C231.206 60.67 238.94 60.332 244.796 66.532C247.226 69.2815 249.216 72.3911 250.694 75.75C252.901 79.6159 253.943 84.0375 253.694 88.482C253.58 89.334 254.392 90.282 255.294 89.706C259.494 87.044 266.004 88.33 269.556 94.598C272.908 100.51 272.182 107.574 271.456 114.036C271.459 114.247 271.523 114.453 271.642 114.628C271.76 114.803 271.927 114.94 272.122 115.021C272.317 115.102 272.531 115.125 272.739 115.085C272.947 115.046 273.138 114.947 273.29 114.8C274.462 113.65 276.012 112.965 277.652 112.872C279.291 112.78 280.908 113.287 282.202 114.298C283.605 115.555 284.636 117.172 285.183 118.975C285.73 120.778 285.771 122.696 285.302 124.52C285.24 124.799 285.288 125.09 285.435 125.335C285.583 125.579 285.818 125.757 286.093 125.833C286.368 125.908 286.662 125.875 286.914 125.74C287.165 125.605 287.355 125.379 287.444 125.108C288.38 122.77 292.78 122.29 294.41 126.004C296.01 129.648 293.846 133.404 291.44 136.094C290.656 136.97 291.924 138.26 292.75 137.404C302.162 127.656 294.088 118.236 287.77 121.79C287.604 112.622 279.606 108.63 273.858 111.698C274.448 105.082 274.554 98.072 270.692 92.392C267.492 87.698 261.344 84.836 255.972 86.954C255.948 83.9061 255.324 80.8928 254.136 78.086C250.502 68.934 244.418 59.402 234.524 59.588C231.98 59.5937 229.509 60.4372 227.492 61.988C225.372 55.348 222.474 48.702 216.834 44.32C207.144 36.792 195.858 40.84 193.234 49.014C189.547 45.4028 185.27 42.4483 180.588 40.278C178.116 39.1749 175.435 38.6195 172.728 38.6499C170.021 38.6802 167.353 39.2957 164.906 40.454C160.125 42.85 156.279 46.7723 153.978 51.6C149.848 60.974 158.092 70.304 171 67.078Z" fill="#E5BA43"/>
<path d="M271.502 260.126C267.25 257.4 259.822 255.86 255.864 258.726C255.536 258.964 255.624 259.552 256.082 259.526C258.751 259.213 261.447 259.199 264.12 259.482C277.348 261.926 282.988 278.18 276.438 289.142C274.566 292.057 271.938 294.41 268.834 295.948C265.729 297.487 262.266 298.154 258.812 297.878C251.036 297.314 246.166 292.18 244.07 284.862C243.136 281.919 242.867 278.806 243.282 275.746C243.697 272.687 244.786 269.758 246.47 267.17C247.753 265.494 249.269 264.008 250.97 262.758C251.45 262.358 250.926 261.45 250.336 261.688C236.336 267.368 238.352 295.544 255.752 299.516C259.525 300.341 263.451 300.129 267.113 298.903C270.775 297.676 274.037 295.481 276.552 292.55C284.44 282.93 281.958 266.832 271.502 260.126Z" fill="#E5BA43"/>
<path d="M250.556 282.862C251.304 284.951 252.681 286.756 254.497 288.029C256.314 289.302 258.481 289.981 260.699 289.971C262.917 289.962 265.078 289.264 266.884 287.975C268.689 286.686 270.05 284.869 270.78 282.774C273.366 275.934 269.064 267.724 261.39 267.442C260.145 267.295 258.882 267.467 257.721 267.941C256.56 268.414 255.538 269.174 254.75 270.15C254.739 270.067 254.704 269.988 254.65 269.924C254.596 269.86 254.525 269.812 254.444 269.787C254.364 269.762 254.278 269.76 254.197 269.782C254.116 269.803 254.043 269.848 253.986 269.91C252.204 271.493 250.929 273.565 250.319 275.869C249.709 278.173 249.791 280.605 250.556 282.862ZM254.64 270.544C254.653 270.533 254.664 270.52 254.672 270.505C254.68 270.49 254.684 270.473 254.684 270.456C254.713 270.57 254.768 270.676 254.843 270.766C254.918 270.857 255.012 270.929 255.118 270.979C255.224 271.029 255.34 271.055 255.458 271.056C255.575 271.056 255.692 271.03 255.798 270.98C257.286 269.91 259.056 269.302 260.888 269.234C265.956 269.234 270.632 274.834 269.122 280.94C268.756 282.701 267.85 284.305 266.531 285.528C265.212 286.752 263.545 287.534 261.761 287.767C259.977 288 258.165 287.671 256.576 286.828C254.987 285.984 253.7 284.666 252.894 283.058C251.994 281.016 251.68 278.763 251.989 276.553C252.297 274.342 253.215 272.262 254.64 270.544Z" fill="#E5BA43"/>
<path d="M195.65 277.2C192.506 275.2 187.066 274.036 184.162 276.2C184.067 276.266 183.996 276.359 183.959 276.468C183.921 276.577 183.92 276.695 183.954 276.804C183.988 276.914 184.056 277.01 184.149 277.079C184.241 277.147 184.353 277.184 184.468 277.184C186.369 276.968 188.288 276.96 190.19 277.162C199.628 278.988 203.504 290.394 198.882 298.128C194.154 306.046 179.65 307.786 176.038 295.092C175.38 293.006 175.192 290.801 175.486 288.634C175.78 286.466 176.55 284.391 177.74 282.556C178.653 281.372 179.727 280.322 180.93 279.434C181.04 279.326 181.11 279.185 181.131 279.032C181.151 278.879 181.12 278.724 181.042 278.591C180.964 278.458 180.844 278.355 180.701 278.298C180.558 278.241 180.4 278.233 180.252 278.276C178.915 278.894 177.718 279.779 176.734 280.875C175.751 281.971 175.001 283.256 174.53 284.652C171.484 292.542 175.202 303.84 184.206 305.852C186.951 306.46 189.81 306.31 192.476 305.417C195.142 304.525 197.516 302.924 199.342 300.786C200.695 299.013 201.674 296.984 202.222 294.822C202.77 292.659 202.875 290.409 202.53 288.205C202.185 286.002 201.397 283.89 200.215 281.999C199.033 280.108 197.48 278.475 195.65 277.2Z" fill="#E5BA43"/>
<path d="M187.788 299.046C195.08 298.926 198.406 289.724 193.27 284.588C190.338 281.656 185.318 281.876 183.506 284.188C183.404 284.111 183.277 284.072 183.149 284.08C183.021 284.089 182.9 284.142 182.808 284.232C176.718 290.18 180.65 299.164 187.788 299.046ZM183.442 285.2C184.402 286.16 185.092 284.128 187.94 284.128C188.881 284.216 189.791 284.508 190.607 284.984C191.423 285.461 192.125 286.11 192.664 286.886C193.203 287.662 193.566 288.547 193.726 289.478C193.887 290.409 193.843 291.364 193.596 292.276C193.34 293.495 192.713 294.604 191.799 295.45C190.886 296.297 189.733 296.839 188.499 297.002C187.264 297.164 186.01 296.94 184.908 296.359C183.807 295.779 182.913 294.87 182.35 293.76C181.747 292.366 181.531 290.836 181.723 289.33C181.915 287.824 182.509 286.398 183.442 285.2Z" fill="#E5BA43"/>
<path d="M385.77 280.852C384.815 277.167 383.154 273.703 380.878 270.652C371.657 255.835 360.263 242.486 347.078 231.052C347.306 230.961 347.502 230.804 347.642 230.602C347.782 230.4 347.859 230.162 347.864 229.916C347.586 224.194 347.23 218.494 346.924 212.772C347.045 210.233 346.636 207.697 345.724 205.324C343.848 201.648 331.442 193.198 327.946 190.998C317.58 184.474 315.336 185.746 306.104 188.246C287.966 193.158 268.904 198.646 251.614 206.46C244.674 209.6 244.522 212.59 244.668 218.67C244.692 219.67 245.164 237.522 245.468 238.456C172.624 258.044 84.42 276.722 10.924 290.768C10.6011 290.865 10.3279 291.082 10.161 291.375C9.99412 291.667 9.94649 292.013 10.028 292.34C14.5875 314.47 25.4669 334.802 41.348 350.874C42.264 351.792 43.658 350.396 42.768 349.454C27.8496 333.692 17.4821 314.181 12.768 292.996C109.644 274.154 202.094 254.764 296.344 226.886C321.614 219.41 322.794 218.152 326.288 219.22C330.602 220.538 352.766 236.62 369.924 259.406C374.415 265.084 378.391 271.151 381.806 277.534C383.836 281.574 383.164 285.07 381.632 289.134C374.236 308.548 361.083 325.237 343.934 336.964C342.582 337.906 343.846 340.13 345.244 339.192C362.619 327.461 376.03 310.738 383.706 291.23C385.315 288.02 386.029 284.434 385.77 280.852ZM336.17 203.69C337.104 203.933 337.944 204.45 338.581 205.173C339.219 205.897 339.626 206.795 339.75 207.752C340.35 211.814 335.448 215.592 331.78 213.192C327.582 210.444 330.832 202.466 336.172 203.69H336.17ZM295.328 202.796C296.262 203.039 297.102 203.555 297.74 204.279C298.379 205.003 298.786 205.901 298.91 206.858C299.51 210.92 294.608 214.698 290.938 212.296C286.72 209.534 290.022 201.576 295.33 202.8L295.328 202.796ZM269.184 210.548C270.118 210.791 270.958 211.307 271.596 212.031C272.235 212.755 272.642 213.653 272.766 214.61C273.366 218.672 268.456 222.462 264.794 220.05C260.564 217.258 263.892 209.334 269.186 210.548H269.184Z" fill="#E5BA43"/>
</svg>
