<svg width="571" height="482" viewBox="0 0 571 482" fill="none" xmlns="http://www.w3.org/2000/svg">
<g clip-path="url(#clip0_700_4608)">
<path d="M465.034 232.631C465.034 239.404 464.75 246.108 464.181 252.744C463.733 257.923 463.121 263.056 462.346 268.143C461.522 273.529 460.513 278.85 459.318 284.106V284.112C458.537 287.572 457.679 291.002 456.745 294.405C454.033 304.297 450.661 313.996 446.651 323.436C445.779 325.489 444.879 327.529 443.95 329.554C440.437 337.225 436.503 344.696 432.167 351.933C420.006 372.256 404.826 390.61 387.147 406.365C385.234 408.067 383.294 409.741 381.328 411.387C339.588 446.273 286.905 465.345 232.517 465.262C104.1 465.262 5.96046e-06 361.111 5.96046e-06 232.631C5.96046e-06 104.151 104.1 -0.000200151 232.517 -0.000200151C285.033 -0.0830453 336.016 17.7015 377.096 50.4334C379.021 51.9601 380.923 53.521 382.8 55.1164C391.96 62.8887 400.509 71.3547 408.37 80.4392H408.377C444.995 122.67 465.117 176.723 465.034 232.631Z" fill="#F2F2F2"/>
<path d="M68.6388 272.815C46.4888 259.625 29.7708 234.976 31.9412 209.279C52.1918 228.67 78.6451 240.27 106.621 242.026C117.413 242.664 129.482 242.249 137.426 249.585C142.369 254.15 144.67 261.022 145.047 267.741C145.424 274.46 144.079 281.143 142.741 287.739L143.201 289.354C117.425 289.451 90.7888 286.005 68.6388 272.815Z" fill="#E6E6E6"/>
<path d="M32.4814 209.251C41.3563 228.663 56.119 244.783 74.6725 255.322C78.6611 257.556 82.9015 259.475 87.4077 260.365C91.8067 261.198 96.3486 260.838 100.562 259.322C104.518 257.987 108.411 256.163 112.623 255.813C117.062 255.445 121.172 257.159 124.402 260.16C128.353 263.833 130.749 268.706 132.927 273.554C135.345 278.936 137.772 284.565 142.409 288.436C142.97 288.905 142.21 289.749 141.649 289.281C133.582 282.547 132.266 271.269 125.817 263.338C122.809 259.637 118.667 256.821 113.746 256.896C109.444 256.961 105.428 258.838 101.434 260.224C97.2395 261.68 93.0379 262.364 88.61 261.723C84.0805 261.068 79.7562 259.311 75.728 257.19C66.6295 252.31 58.3544 246.029 51.2059 238.577C43.0003 230.118 36.3014 220.317 31.3992 209.598C31.0961 208.934 32.1802 208.592 32.4814 209.251Z" fill="white"/>
<path d="M68.4987 252.28C66.3087 255.155 63.1688 257.157 59.6397 257.929C56.1106 258.701 52.4222 258.192 49.2331 256.495C48.589 256.149 49.0957 255.131 49.7406 255.478C52.7074 257.064 56.1433 257.537 59.4281 256.811C62.7129 256.086 65.6303 254.209 67.6537 251.521C68.0941 250.937 68.9366 251.7 68.4987 252.28Z" fill="white"/>
<path d="M98.6445 260.263C97.7229 252.932 94.0735 246.219 88.4241 241.461C87.864 240.99 88.624 240.145 89.1834 240.616C95.0531 245.578 98.8366 252.572 99.779 260.202C99.8683 260.93 98.7334 260.986 98.6445 260.263Z" fill="white"/>
<path d="M44.4091 229.585C45.4881 228.649 46.3179 227.46 46.8241 226.124C47.3303 224.789 47.497 223.348 47.3092 221.932C47.2107 221.206 48.3458 221.15 48.4437 221.872C48.6438 223.437 48.4578 225.028 47.9018 226.505C47.3458 227.982 46.4368 229.3 45.2541 230.344C45.1509 230.452 45.0105 230.517 44.8615 230.524C44.7125 230.532 44.566 230.483 44.4519 230.387C44.3405 230.286 44.2736 230.145 44.2655 229.995C44.2575 229.844 44.3091 229.697 44.4091 229.585Z" fill="white"/>
<path d="M103.639 159.495C103.714 159.946 103.788 160.398 103.871 160.853C104.902 166.918 106.425 172.889 108.422 178.707C108.57 179.159 108.726 179.615 108.886 180.062C113.849 194.028 121.36 206.95 131.038 218.173C134.893 222.635 139.082 226.797 143.568 230.623C149.764 235.907 156.903 241.143 160.875 247.965C161.298 248.672 161.676 249.405 162.008 250.159L145.135 288.667C145.053 288.735 144.979 288.807 144.897 288.876L144.294 290.444C144.048 290.263 143.798 290.07 143.553 289.889C143.41 289.784 143.271 289.671 143.129 289.567C143.035 289.494 142.941 289.422 142.852 289.362C142.821 289.338 142.79 289.313 142.767 289.293C142.678 289.233 142.602 289.168 142.522 289.112C141.119 288.036 139.722 286.948 138.33 285.849C138.321 285.845 138.321 285.845 138.316 285.833C127.729 277.429 117.75 268.067 109.509 257.488C109.261 257.169 109.004 256.847 108.764 256.511C105.076 251.722 101.785 246.639 98.9245 241.313C97.3675 238.392 95.9593 235.394 94.7053 232.33C91.4804 224.407 89.5212 216.027 88.8994 207.495C87.6623 190.487 91.8758 173.273 102.795 160.465C103.075 160.138 103.351 159.818 103.639 159.495Z" fill="#E6E6E6"/>
<path d="M104.09 159.795C99.4945 180.64 101.581 202.404 110.053 221.995C111.893 226.181 114.124 230.267 117.187 233.692C120.197 237.008 124.04 239.456 128.317 240.783C132.279 242.1 136.485 242.989 140.058 245.247C143.824 247.627 146.075 251.471 146.847 255.813C147.792 261.125 146.772 266.46 145.594 271.642C144.286 277.397 142.836 283.353 144.209 289.236C144.376 289.949 143.26 290.165 143.094 289.454C140.706 279.218 146.441 269.42 146.065 259.203C145.89 254.436 144.277 249.692 140.304 246.788C136.829 244.248 132.493 243.328 128.47 242.029C124.245 240.665 120.479 238.68 117.329 235.501C114.107 232.25 111.711 228.242 109.772 224.122C105.444 214.745 102.616 204.745 101.392 194.49C99.9312 182.793 100.481 170.932 103.017 159.42C103.174 158.708 104.246 159.088 104.09 159.795Z" fill="white"/>
<path d="M106.954 215.847C103.475 216.823 99.7636 216.53 96.4813 215.021C93.1989 213.511 90.5598 210.884 89.035 207.607C88.7288 206.943 89.7458 206.436 90.0524 207.101C91.4666 210.155 93.9252 212.602 96.9846 214.001C100.044 215.401 103.503 215.66 106.736 214.732C107.439 214.531 107.653 215.648 106.954 215.847Z" fill="white"/>
<path d="M126.22 240.38C129.895 233.972 131.021 226.413 129.374 219.211C129.21 218.498 130.325 218.281 130.489 218.993C132.189 226.491 131.001 234.355 127.162 241.015C126.796 241.649 125.855 241.011 126.22 240.38Z" fill="white"/>
<path d="M101.377 183.215C102.802 183.118 104.18 182.669 105.388 181.907C106.596 181.146 107.596 180.096 108.298 178.852C108.656 178.213 109.596 178.853 109.24 179.487C108.458 180.858 107.352 182.016 106.019 182.86C104.687 183.705 103.167 184.21 101.595 184.331C101.447 184.355 101.297 184.322 101.173 184.238C101.049 184.155 100.962 184.028 100.928 183.882C100.9 183.734 100.932 183.581 101.016 183.456C101.1 183.332 101.23 183.245 101.377 183.215Z" fill="white"/>
<path d="M161.067 53.917L189.526 387.229L132.607 391.51V58.1577C139.39 53.6676 149.126 52.9652 161.067 53.917Z" fill="#CCCCCC"/>
<path d="M301.546 53.917L273.087 387.229L330.005 391.51V58.1577C323.223 53.6676 313.487 52.9652 301.546 53.917Z" fill="#CCCCCC"/>
<path d="M321.482 405.287H140.524C137.623 405.283 134.841 404.129 132.789 402.076C130.737 400.023 129.583 397.24 129.58 394.336V63.0494C129.583 60.1464 130.737 57.3632 132.789 55.3104C134.841 53.2576 137.623 52.1029 140.524 52.0996H321.482C324.384 52.1029 327.166 53.2576 329.218 55.3104C331.27 57.3632 332.424 60.1464 332.427 63.0494V394.336C332.424 397.24 331.27 400.023 329.218 402.076C327.166 404.129 324.384 405.283 321.482 405.287ZM140.524 55.7344C138.586 55.7366 136.728 56.508 135.357 57.8793C133.986 59.2507 133.215 61.11 133.213 63.0494V394.336C133.215 396.276 133.986 398.135 135.357 399.507C136.727 400.878 138.586 401.65 140.524 401.652H321.482C323.421 401.65 325.279 400.878 326.65 399.507C328.021 398.135 328.792 396.276 328.794 394.336V63.0494C328.792 61.1101 328.021 59.2507 326.65 57.8794C325.279 56.508 323.421 55.7366 321.482 55.7345L140.524 55.7344Z" fill="#CCCCCC"/>
<path d="M330.61 107.228H131.396V110.863H330.61V107.228Z" fill="#CCCCCC"/>
<path d="M330.61 167.809H131.396V171.444H330.61V167.809Z" fill="#CCCCCC"/>
<path d="M196.043 53.917H192.41V219.303H196.043V53.917Z" fill="#CCCCCC"/>
<path d="M269.597 53.917H265.964V219.303H269.597V53.917Z" fill="#CCCCCC"/>
<path d="M353.317 415.283H114.745C110.409 415.283 106.25 413.559 103.184 410.492C100.118 407.424 98.3959 403.264 98.3959 398.926C98.3959 394.588 100.118 390.427 103.184 387.36C106.25 384.292 110.409 382.569 114.745 382.569H353.317C357.653 382.569 361.812 384.292 364.878 387.36C367.944 390.427 369.666 394.588 369.666 398.926C369.666 403.264 367.944 407.424 364.878 410.492C361.812 413.559 357.653 415.283 353.317 415.283Z" fill="#CCCCCC"/>
<path d="M330.61 210.822H132.607V222.938H330.61V210.822Z" fill="#CCCCCC"/>
<path d="M196.607 249.382L196.356 249.261C182.858 242.737 165.182 242.743 139.042 249.282L138.763 249.352L138.679 249.076C135.914 240.005 132.781 229.73 138.666 224.675C138.749 209.842 151.754 197.797 167.728 197.797C183.699 197.797 196.703 209.835 196.79 224.665C205.544 231.361 201.372 241.257 196.749 249.141L196.607 249.382Z" fill="#2F2E41"/>
<path d="M279.569 217.619C279.327 218.821 278.825 219.955 278.097 220.942C277.37 221.929 276.435 222.744 275.358 223.33C274.282 223.916 273.09 224.259 271.867 224.334C270.644 224.409 269.419 224.216 268.279 223.766L220.578 271.725L216.322 256.834L263.698 212.297C264.579 210.431 266.115 208.953 268.013 208.143C269.911 207.334 272.04 207.249 273.996 207.905C275.952 208.561 277.6 209.912 278.628 211.703C279.655 213.493 279.99 215.598 279.569 217.619Z" fill="#FFB6B6"/>
<path d="M161.677 263.789C161.677 263.789 157.349 273.601 168.028 279.652C178.706 285.703 216.029 277.343 222.084 276.176C228.14 275.009 250.759 241.144 250.759 241.144L247.56 224.535L217.563 250.588L161.677 263.789Z" fill="#6C63FF"/>
<path d="M153.8 318.05L154.406 329.56C154.406 329.56 152.619 339.757 154.089 341.957C155.547 344.146 195.355 344.423 195.355 344.423C195.355 344.423 197.985 330.237 200.25 317.82L153.8 318.05Z" fill="#FFB6B6"/>
<path d="M268.251 470.242L276.573 468.56L274.191 434.929L261.909 437.411L268.251 470.242Z" fill="#FFB6B6"/>
<path d="M280.172 426.477L287.908 422.996L277.872 390.818L266.453 395.955L280.172 426.477Z" fill="#FFB6B6"/>
<path d="M286.911 408.346L272.343 416.598L236.417 358.839C211.197 375.839 186.534 383.98 161.672 388.324C153.266 389.821 144.696 389.062 143.083 380.503C143.007 380.103 142.947 379.7 142.902 379.296C141.909 369.946 153.534 357.962 155.012 346.523L186.825 344.612L190.749 349.645L227.54 327.014C234.939 322.463 244.671 324.925 249.276 332.512C249.519 332.913 249.745 333.323 249.954 333.744L286.911 408.346Z" fill="#2F2E41"/>
<path d="M277.995 447.201L261.326 448.751L231.103 386.909C201.133 392.066 172.859 393.718 148.403 387.48C140.123 385.397 135.061 376.843 137.098 368.374C137.193 367.978 137.303 367.586 137.428 367.199C140.355 358.264 148.016 351.943 154.053 342.116L198.144 342.786L193.22 359.786L236.052 354.241C244.665 353.126 252.532 359.364 253.622 368.174C253.68 368.639 253.717 369.106 253.735 369.575L277.995 447.201Z" fill="#2F2E41"/>
<path d="M171.017 240.59C180.905 240.59 188.92 232.57 188.92 222.677C188.92 212.785 180.905 204.765 171.017 204.765C161.129 204.765 153.113 212.785 153.113 222.677C153.113 232.57 161.129 240.59 171.017 240.59Z" fill="#FFB6B6"/>
<path d="M160.521 247.056L176.937 248.988C177.629 249.07 178.278 249.365 178.795 249.834C179.311 250.302 179.669 250.92 179.818 251.601L182.428 263.553L198.703 282.728C198.703 282.728 204.546 293.69 202.355 306.115C200.164 318.539 199.201 327.771 199.201 327.771C199.201 327.771 155.545 344.147 154.084 341.955C152.623 339.762 152.149 329.803 152.149 329.803L146.305 264.758C146.305 264.758 152.88 253.795 156.532 253.795C158.89 253.716 158.587 248.408 160.521 247.056Z" fill="#6C63FF"/>
<path d="M199.644 331.77C201.946 331.77 203.813 329.53 203.813 326.766C203.813 324.002 201.946 321.761 199.644 321.761C197.342 321.761 195.476 324.002 195.476 326.766C195.476 329.53 197.342 331.77 199.644 331.77Z" fill="#6C63FF"/>
<path d="M264.121 461.583L276.809 455.221L279.2 460.803L295.244 464.048C296.037 464.208 296.757 464.617 297.301 465.216C297.844 465.815 298.182 466.572 298.265 467.376C298.348 468.181 298.171 468.991 297.762 469.688C297.352 470.386 296.73 470.933 295.987 471.252L280.485 477.9L275.448 473.525L276.77 479.493L270.925 482L264.121 461.583Z" fill="#2F2E41"/>
<path d="M276.541 423.799L289.115 417.215L291.604 422.754L307.702 425.716C308.497 425.862 309.225 426.259 309.779 426.848C310.333 427.437 310.684 428.188 310.781 428.991C310.878 429.794 310.716 430.607 310.318 431.311C309.921 432.016 309.309 432.574 308.571 432.906L293.189 439.826L288.075 435.54L289.502 441.484L283.702 444.093L276.541 423.799Z" fill="#2F2E41"/>
<path d="M160.788 217.059C156.058 217.066 151.441 215.609 147.572 212.887L147.443 212.797V212.639C147.448 208.062 149.268 203.673 152.503 200.436C155.738 197.199 160.124 195.379 164.7 195.374H171.966C176.541 195.379 180.928 197.199 184.163 200.436C187.398 203.673 189.218 208.062 189.223 212.639C189.218 213.687 188.805 214.691 188.071 215.438C187.337 216.186 186.34 216.617 185.293 216.64L161.196 217.055C161.06 217.058 160.923 217.059 160.788 217.059Z" fill="#2F2E41"/>
<path d="M190.434 209.323C192.751 207.985 193.138 204.316 191.299 201.129C189.46 197.941 186.09 196.443 183.773 197.781C181.456 199.119 181.069 202.788 182.909 205.975C184.748 209.163 188.117 210.661 190.434 209.323Z" fill="#2F2E41"/>
<path d="M154.198 205.767C156.799 203.165 157.374 199.521 155.483 197.628C153.591 195.736 149.949 196.311 147.348 198.913C144.746 201.516 144.171 205.16 146.063 207.052C147.955 208.945 151.597 208.37 154.198 205.767Z" fill="#2F2E41"/>
<path d="M312.65 369.544H294.78C294.376 369.543 293.978 369.63 293.612 369.799C293.246 369.969 292.922 370.216 292.661 370.524C292.002 370.403 291.324 370.44 290.681 370.632C290.039 370.824 289.452 371.165 288.967 371.628C288.483 372.092 288.115 372.663 287.894 373.296C287.673 373.929 287.605 374.606 287.696 375.27C287.787 375.934 288.035 376.567 288.418 377.117C288.801 377.668 289.309 378.119 289.9 378.435C290.491 378.75 291.149 378.921 291.819 378.933C292.489 378.945 293.152 378.798 293.754 378.504L295.237 383.323C295.412 383.894 295.766 384.394 296.247 384.749C296.727 385.104 297.308 385.295 297.906 385.295H309.524C310.121 385.295 310.703 385.103 311.183 384.749C311.663 384.394 312.017 383.894 312.193 383.323L315.319 373.159C315.447 372.741 315.476 372.299 315.403 371.868C315.329 371.437 315.156 371.03 314.896 370.678C314.636 370.326 314.298 370.041 313.908 369.844C313.518 369.647 313.087 369.544 312.65 369.544ZM291.907 377.722C291.104 377.722 290.334 377.403 289.766 376.835C289.199 376.267 288.88 375.497 288.88 374.693C288.88 373.89 289.199 373.12 289.766 372.551C290.334 371.983 291.104 371.664 291.907 371.664C291.962 371.664 292.014 371.678 292.069 371.681C291.948 372.168 291.963 372.679 292.111 373.159L293.39 377.318C292.939 377.58 292.428 377.719 291.907 377.722Z" fill="#3F3D56"/>
<path d="M232.852 356.393C231.631 356.506 230.401 356.35 229.248 355.936C228.094 355.522 227.046 354.859 226.176 353.996C225.305 353.132 224.635 352.088 224.212 350.938C223.789 349.787 223.623 348.557 223.726 347.336L164.12 315.378L177.158 307.027L233.393 339.655C235.433 339.964 237.289 341.011 238.609 342.598C239.928 344.185 240.62 346.201 240.554 348.265C240.487 350.328 239.666 352.295 238.247 353.793C236.827 355.291 234.908 356.216 232.852 356.393Z" fill="#FFB6B6"/>
<path d="M154.819 256.649C154.819 256.649 144.183 255.317 141.453 267.287C138.723 279.258 157.436 312.63 160.291 318.099C163.146 323.568 202.061 335.53 202.061 335.53L217.045 327.699L183.494 306.424L154.819 256.649Z" fill="#6C63FF"/>
<path d="M229.792 207.187H233.425C235.192 207.187 236.886 207.889 238.135 209.139C239.384 210.389 240.086 212.084 240.086 213.851H223.132C223.132 212.084 223.834 210.389 225.083 209.139C226.332 207.889 228.026 207.187 229.792 207.187Z" fill="#CCCCCC"/>
<path d="M114.588 82.8539C134.467 82.8539 150.581 66.7315 150.581 46.8435C150.581 26.9554 134.467 10.833 114.588 10.833C94.71 10.833 78.5955 26.9554 78.5955 46.8435C78.5955 66.7315 94.71 82.8539 114.588 82.8539Z" fill="#FF6584"/>
<path d="M224.79 44.9667C215.264 34.9693 204.202 25.8491 191.105 21.0297C187.457 19.6815 183.675 18.7305 179.823 18.1931C179.792 18.1888 179.763 18.1951 179.732 18.1926C179.669 18.1765 179.606 18.164 179.542 18.1552C174.155 17.4686 168.687 17.7989 163.422 19.1289C160.847 19.7754 158.335 20.6509 155.916 21.7449C153.488 22.9298 151.136 24.2634 148.873 25.7382C144.082 28.6072 138.808 30.5759 133.31 31.5471C130.55 32.0442 127.755 32.3187 124.951 32.3679C122.518 32.4167 120.224 32.5013 117.919 33.3806C115.457 34.3069 113.245 35.7962 111.46 37.7296C109.676 39.6629 108.367 41.9869 107.64 44.516C107.584 44.7412 107.601 44.9784 107.688 45.1934C107.775 45.4084 107.929 45.59 108.126 45.7121C108.75 46.1589 109.358 46.6658 110.013 47.0638C110.595 47.3307 111.218 47.5005 111.855 47.5666C112.897 47.7865 113.94 47.9999 114.984 48.207C118.831 48.9695 122.693 49.6445 126.572 50.232C134.42 51.4206 142.311 52.258 150.244 52.7439C166.136 53.707 182.083 53.2275 197.889 51.3113C206.772 50.2348 215.594 48.7081 224.323 46.7369C224.499 46.6853 224.66 46.5888 224.788 46.4568C224.917 46.3249 225.009 46.1619 225.056 45.9838C225.103 45.8057 225.103 45.6185 225.057 45.4403C225.01 45.2621 224.918 45.0989 224.79 44.9667Z" fill="#E6E6E6"/>
<path d="M116.297 69.0438C112.649 67.6957 108.866 66.7446 105.014 66.2073C104.983 66.203 104.954 66.2093 104.923 66.2068C104.861 66.1906 104.797 66.1781 104.733 66.1694C99.346 65.4828 93.8781 65.8131 88.6129 67.1431C86.038 67.7895 83.5261 68.665 81.1072 69.7591C78.6796 70.9439 76.3275 72.2776 74.0643 73.7524C69.2737 76.6214 63.9992 78.59 58.501 79.5612C55.7412 80.0584 52.9459 80.3328 50.1422 80.382C47.7094 80.4309 45.4151 80.5154 43.1101 81.3948C40.648 82.3211 38.4363 83.8103 36.6516 85.7437C34.8669 87.6771 33.5586 90.001 32.8311 92.5301C32.775 92.7553 32.7919 92.9925 32.8793 93.2075C32.9668 93.4225 33.1202 93.6041 33.3175 93.7262C33.9411 94.173 34.5489 94.6799 35.204 95.0779C35.7867 95.3448 36.4091 95.5146 37.0466 95.5807C38.0881 95.8006 39.131 96.0141 40.1751 96.2211C44.0218 96.9836 47.8845 97.6586 51.7632 98.2461C59.6115 99.4347 67.5022 100.272 75.4353 100.758C91.3276 101.721 107.274 101.242 123.08 99.3254C131.963 98.2489 140.786 96.7222 149.514 94.7511C149.691 94.6994 149.851 94.6029 149.98 94.4709C150.108 94.339 150.2 94.176 150.247 93.9979C150.294 93.8198 150.294 93.6326 150.248 93.4544C150.201 93.2762 150.109 93.1131 149.981 92.9808C140.456 82.9835 129.393 73.8633 116.297 69.0438Z" fill="#E6E6E6"/>
<path d="M375.856 337.496L348.177 301.116L326.337 313.471L372.617 368.456L375.856 337.496Z" fill="#3F3D56"/>
<path d="M439.615 278.358C440.23 293.603 442.591 308.728 446.651 323.436C445.779 325.489 444.879 327.529 443.95 329.554C440.437 337.225 436.503 344.696 432.167 351.933C420.006 372.256 404.826 390.61 387.147 406.365C385.234 408.067 383.294 409.741 381.328 411.387C370.12 395.927 364.071 378.867 361.679 361.311C361.377 359.082 361.128 356.828 360.941 354.587V354.574C360.481 349.127 360.334 343.658 360.499 338.193C360.505 337.757 360.517 337.315 360.535 336.873C360.747 331.033 361.274 325.181 362.067 319.383V319.377C362.158 318.711 362.249 318.044 362.351 317.378C362.642 315.379 362.969 313.379 363.326 311.392C365.406 299.932 368.307 288.637 372.009 277.594V277.588C372.112 277.267 372.215 276.952 372.33 276.637C372.73 275.438 373.136 274.25 373.554 273.063C373.579 272.97 373.612 272.879 373.65 272.79C374.189 271.239 374.74 269.701 375.303 268.174C375.455 267.75 375.612 267.326 375.776 266.902C376.412 265.199 377.059 263.509 377.719 261.843C377.925 261.31 378.137 260.777 378.349 260.25C378.513 259.844 378.67 259.438 378.84 259.038V259.032C379.802 256.651 380.777 254.317 381.764 252.029C384.531 245.595 387.377 239.543 390.151 233.964L390.157 233.958C401.668 210.858 412.131 195.858 412.131 195.858L451.423 208.58C446.736 216.898 443.109 229.166 441.123 243.639C439.593 255.142 439.088 266.759 439.615 278.352L439.615 278.358Z" fill="#3F3D56"/>
<path d="M374.31 274.656C374.08 274.117 373.82 273.59 373.553 273.063C372.172 270.387 370.394 267.936 368.279 265.793C367.965 265.472 367.638 265.151 367.298 264.848C363.651 261.487 359.216 259.1 354.403 257.907C349.589 256.715 344.553 256.756 339.76 258.026L339.736 258.039L339.554 258.087L339.596 258.293C339.778 259.253 340.041 260.195 340.383 261.11C340.474 261.358 340.577 261.595 340.68 261.831C340.723 261.94 340.777 262.037 340.825 262.146C340.825 262.146 340.819 262.152 340.832 262.152C340.832 262.158 340.838 262.164 340.838 262.17C340.953 262.394 341.062 262.624 341.183 262.843C340.934 262.606 340.698 262.364 340.468 262.116C340.244 261.885 340.038 261.643 339.832 261.401C339.127 260.577 338.489 259.698 337.925 258.772L337.828 258.608L337.659 258.675C335.374 259.467 333.194 260.535 331.167 261.855L330.949 262.001C329.402 263.017 327.659 263.696 325.832 263.995C324.006 264.293 322.137 264.204 320.347 263.733C317.525 263.005 314.583 262.872 311.707 263.343C308.831 263.813 306.084 264.876 303.641 266.465C302.022 267.521 300.559 268.797 299.293 270.258C299.184 270.385 299.075 270.518 298.966 270.645C298.736 270.924 298.518 271.209 298.306 271.5C296.03 274.543 294.633 278.154 294.267 281.938L294.255 282.077L294.37 282.156C296.419 283.561 298.736 284.526 301.176 284.991C299.644 285.205 298.092 285.244 296.55 285.106H296.544C295.845 285.048 295.15 284.951 294.461 284.815L294.334 284.791H294.328L294.171 284.761L294.195 285.052C294.376 288.753 295.54 292.34 297.568 295.441L297.628 295.526C297.65 295.557 297.671 295.589 297.689 295.623C298.548 296.938 299.262 298.341 299.82 299.809C301.236 303.457 301.547 307.441 300.716 311.265C299.776 315.355 300.088 319.633 301.613 323.543C303.138 327.453 305.805 330.812 309.266 333.183C312.306 335.276 315.849 336.52 319.53 336.788C320.032 336.83 320.541 336.854 321.049 336.854C323.961 336.863 326.842 336.263 329.508 335.092L329.605 335.055L329.629 334.946C330.142 333.291 330.862 331.707 331.773 330.233C331.475 331.395 331.324 332.59 331.325 333.789V334.189L331.67 333.989C331.967 333.813 332.27 333.625 332.542 333.45C334.178 332.381 335.659 331.093 336.944 329.621C337.447 329.039 337.955 328.476 338.488 327.913L338.494 327.907C339.53 326.804 340.626 325.726 341.764 324.696C344.186 322.52 346.778 320.54 349.515 318.777C352.25 317.02 355.109 315.465 358.07 314.124H358.076C358.41 313.967 358.749 313.815 359.082 313.67C360.556 313.028 361.976 312.266 363.326 311.392C363.375 311.362 363.417 311.338 363.46 311.307C369.313 307.473 373.616 301.684 375.603 294.973C377.59 288.261 377.132 281.061 374.31 274.656Z" fill="#6C63FF"/>
<path opacity="0.15" d="M301.714 319.867C301.549 320.603 301.423 321.348 301.339 322.098C300.211 318.534 300.048 314.735 300.865 311.087C300.991 310.529 301.086 309.964 301.16 309.396C302.279 312.774 302.47 316.39 301.714 319.867Z" fill="black"/>
<path opacity="0.15" d="M302.172 293.588C300.378 293.837 298.559 293.846 296.763 293.614C296.293 292.726 295.887 291.806 295.548 290.86C297.548 292.21 299.802 293.139 302.172 293.588Z" fill="black"/>
<path opacity="0.15" d="M296.62 284.911C295.958 286.605 295.518 288.378 295.311 290.185C294.758 288.464 294.432 286.678 294.341 284.873L294.326 284.582L294.612 284.637C295.276 284.762 295.946 284.854 296.62 284.911Z" fill="black"/>
<path opacity="0.15" d="M303.797 266.285C306.237 264.694 308.983 263.629 311.857 263.158C314.732 262.687 317.673 262.82 320.494 263.55C322.284 264.023 324.154 264.114 325.982 263.816C327.81 263.518 329.555 262.838 331.102 261.82L331.321 261.676C333.345 260.352 335.524 259.282 337.808 258.488L337.983 258.427L338.078 258.585C338.981 260.079 340.076 261.449 341.333 262.659C340.569 261.235 340.034 259.7 339.748 258.109L339.707 257.9L339.913 257.845C344.409 256.655 349.122 256.544 353.669 257.523C358.215 258.502 362.466 260.543 366.074 263.479C369.682 266.414 372.546 270.162 374.43 274.415C376.315 278.669 377.168 283.308 376.92 287.954C375.967 284.166 374.271 280.605 371.932 277.478C369.593 274.35 366.657 271.718 363.293 269.734C359.93 267.75 356.207 266.454 352.339 265.92C348.471 265.386 344.536 265.626 340.762 266.625L340.555 266.68L340.596 266.889C340.883 268.48 341.418 270.015 342.182 271.439C340.924 270.229 339.83 268.859 338.926 267.365L338.831 267.207L338.657 267.268C336.372 268.062 334.194 269.132 332.169 270.456L331.951 270.6C330.403 271.618 328.658 272.298 326.831 272.596C325.003 272.894 323.133 272.803 321.342 272.33C316.655 271.113 311.69 271.56 307.296 273.596C302.901 275.631 299.348 279.129 297.243 283.492C296.306 283.042 295.397 282.534 294.522 281.972L294.404 281.896L294.418 281.757C294.719 278.639 295.719 275.629 297.342 272.95C298.966 270.272 301.172 267.994 303.797 266.285Z" fill="black"/>
<path d="M528.904 111.493L528.329 111.112L527.911 111.657C524.678 115.73 522.105 120.287 520.288 125.16C520.538 119.546 521.52 113.988 523.206 108.628L523.388 108.064L522.867 107.768C516.092 103.929 508.873 100.935 501.371 98.85L500.554 98.6319C494.804 97.0535 489.452 94.2804 484.846 90.4933C480.239 86.7063 476.483 81.9904 473.82 76.6531C467.634 64.404 457.861 54.3338 445.805 47.7862C433.75 41.2386 419.985 38.5251 406.348 40.0077H406.342C406.197 40.0198 406.045 40.038 405.9 40.0562C405.652 40.0804 405.41 40.1107 405.167 40.141C404.671 40.2076 404.186 40.2743 403.702 40.347C403.29 40.4075 402.872 40.4742 402.461 40.5469C402.243 40.5772 402.031 40.6135 401.819 40.6559C401.607 40.6923 401.389 40.7286 401.177 40.771H401.171C397.105 41.5404 393.12 42.6863 389.267 44.1939H389.26V44.1999L388.286 44.5815C387.28 44.9935 386.283 45.4297 385.294 45.8901C385.07 45.9931 384.852 46.1021 384.628 46.2051C384.568 46.2354 384.501 46.2657 384.441 46.302C383.805 46.6049 383.175 46.92 382.551 47.2532C382.461 47.2956 382.37 47.344 382.279 47.3925L381.698 47.7015C380.42 48.3921 379.165 49.1251 377.931 49.9006C377.828 49.9611 377.732 50.0217 377.629 50.0884C377.52 50.161 377.405 50.2337 377.296 50.3064C377.229 50.3428 377.162 50.3913 377.096 50.4337C376.908 50.5488 376.726 50.6699 376.545 50.7971C376.181 51.0334 375.818 51.2757 375.461 51.5241C375.091 51.7725 374.728 52.033 374.365 52.2935L374.002 52.554L374.068 53.0023C374.129 53.3718 374.183 53.7414 374.25 54.1049C374.31 54.4684 374.371 54.8258 374.438 55.1832C374.541 55.783 374.656 56.3767 374.771 56.9522C374.849 57.3338 374.922 57.7094 375.007 58.079C375.085 58.4606 375.17 58.8423 375.261 59.224C375.437 60.0115 375.624 60.7748 375.824 61.526C375.921 61.9016 376.024 62.2772 376.133 62.6468C376.194 62.8709 376.254 63.0951 376.321 63.3132C376.369 63.4646 376.418 63.6161 376.466 63.7675C376.478 63.816 376.49 63.8705 376.508 63.925C376.522 63.9764 376.538 64.0269 376.557 64.0765C376.623 64.3007 376.69 64.5188 376.757 64.7308C376.793 64.8459 376.829 64.961 376.872 65.07C376.956 65.3305 377.047 65.5971 377.138 65.8515C377.235 66.1423 377.338 66.4331 377.441 66.7178C377.465 66.7905 377.489 66.8572 377.514 66.9299C377.532 66.9844 377.55 67.0389 377.574 67.0934C377.598 67.154 377.623 67.2207 377.647 67.2812C377.75 67.5538 377.853 67.8325 377.962 68.1051C377.998 68.2021 378.034 68.305 378.077 68.402C379.058 70.87 380.264 73.2426 381.679 75.49C380.111 74.1451 378.601 72.7194 377.15 71.2129C374.91 68.8837 372.845 66.391 370.974 63.7554C370.823 63.5494 370.671 63.3374 370.532 63.1254C370.247 62.7195 369.969 62.3136 369.696 61.9016C369.406 61.4776 369.127 61.0353 368.855 60.5992C368.673 60.3084 368.491 60.0115 368.316 59.7207C368.14 59.4421 367.977 59.1694 367.819 58.8908L367.347 58.079H367.341V58.085L366.675 58.7393C366.409 58.9998 366.142 59.2603 365.882 59.5208C357.743 67.7132 351.848 77.8628 348.764 88.9934L348.673 89.3266L348.582 89.6719C348.407 90.2898 348.231 90.8896 348.043 91.5015V91.5075C347.862 92.1133 347.668 92.7191 347.462 93.3128C347.274 93.8762 347.08 94.4336 346.875 94.9909C346.808 95.1787 346.735 95.3665 346.657 95.5543C346.529 95.9178 346.39 96.2752 346.251 96.6387C346.184 96.8023 346.118 96.9719 346.051 97.1355C345.888 97.5353 345.724 97.9352 345.561 98.3289C345.536 98.3895 345.506 98.4562 345.476 98.5167C345.427 98.6379 345.373 98.7591 345.325 98.8742C345.197 99.165 345.064 99.4618 344.937 99.7526C344.846 99.9404 344.761 100.134 344.677 100.322C344.64 100.407 344.598 100.492 344.562 100.576C344.338 101.061 344.107 101.54 343.865 102.012C343.593 102.57 343.314 103.127 343.017 103.672C342.757 104.181 342.485 104.678 342.2 105.175C341.71 106.053 341.195 106.925 340.662 107.774C340.456 108.101 340.25 108.428 340.038 108.755C339.99 108.834 339.941 108.912 339.893 108.985C339.717 109.27 339.536 109.543 339.348 109.821C339.221 110.009 339.094 110.197 338.967 110.379C338.755 110.706 338.531 111.021 338.301 111.33C338.24 111.427 338.173 111.517 338.107 111.608C337.768 112.081 337.429 112.541 337.083 113.002C337.071 113.008 337.071 113.014 337.065 113.02C337.053 113.02 337.053 113.026 337.047 113.032C336.896 113.232 336.744 113.432 336.587 113.626C336.381 113.91 336.157 114.189 335.933 114.462C335.57 114.922 335.188 115.389 334.801 115.843C334.789 115.855 334.783 115.867 334.77 115.873C332.764 118.232 330.591 120.442 328.267 122.489C328.225 122.525 328.195 122.561 328.152 122.592C327.825 122.876 327.498 123.161 327.159 123.44C327.02 123.555 326.881 123.67 326.741 123.785C326.511 123.979 326.275 124.173 326.045 124.349C326.018 124.376 325.987 124.401 325.954 124.421C325.748 124.591 325.548 124.748 325.343 124.906C325.094 125.106 324.846 125.294 324.592 125.481C323.393 126.39 322.162 127.248 320.898 128.056C320.71 128.183 320.511 128.311 320.317 128.432C320.202 128.504 320.087 128.577 319.978 128.638C319.518 128.922 319.057 129.201 318.597 129.468C318.137 129.74 317.665 130.001 317.198 130.255C316.199 130.8 315.212 131.37 314.25 131.964C313.765 132.266 313.281 132.569 312.802 132.878C310.901 134.114 309.07 135.437 307.31 136.846C305.551 138.257 303.863 139.755 302.254 141.335C302.055 141.529 301.855 141.729 301.655 141.935C301.255 142.329 300.868 142.729 300.498 143.129C299.905 143.74 299.336 144.371 298.773 145.007C295.803 148.378 293.175 152.034 290.925 155.923C289.796 157.865 288.769 159.865 287.849 161.915C287.153 163.447 286.517 165.017 285.942 166.604C285.56 167.664 285.203 168.734 284.87 169.814C284.707 170.354 284.549 170.899 284.398 171.444C283.883 173.292 283.453 175.158 283.102 177.03C282.817 178.532 282.587 180.037 282.412 181.543C282.321 182.3 282.248 183.057 282.182 183.809C282.026 185.655 281.946 187.503 281.943 189.353C281.932 194.903 282.606 200.433 283.95 205.818C284.246 207.005 284.575 208.186 284.937 209.362C285.118 209.949 285.312 210.531 285.506 211.113C285.996 212.566 286.539 214.006 287.135 215.432C287.492 216.286 287.867 217.134 288.261 217.976C290.762 223.33 293.954 228.332 297.755 232.855C298.379 233.6 299.023 234.333 299.687 235.054C299.693 235.054 299.687 235.06 299.687 235.06C301.335 236.858 303.079 238.565 304.912 240.173H304.919C305.651 240.821 306.396 241.449 307.153 242.057C307.159 242.051 307.159 242.057 307.159 242.057C307.922 242.675 308.691 243.269 309.478 243.844C309.872 244.129 310.271 244.414 310.677 244.699C311.47 245.262 312.28 245.805 313.105 246.328H313.111C313.935 246.861 314.77 247.37 315.618 247.855C317.319 248.83 319.063 249.745 320.856 250.575L321.158 250.714L321.467 250.575C324.341 249.281 327.304 248.194 330.332 247.322C330.998 247.128 331.67 246.952 332.336 246.783C334.02 246.365 335.715 246.013 337.423 245.729C335.759 246.564 334.153 247.509 332.615 248.558C331.422 249.363 330.247 250.242 329.066 251.211C328.673 251.532 328.279 251.865 327.886 252.205L326.905 253.053L328.134 253.459C328.582 253.604 329.03 253.749 329.478 253.883C330.09 254.077 330.695 254.252 331.289 254.416C332.584 254.779 333.888 255.1 335.2 255.379C335.521 255.446 335.836 255.512 336.157 255.579C336.781 255.7 337.41 255.821 338.04 255.93C338.066 255.937 338.092 255.941 338.119 255.942C338.773 256.051 339.433 256.154 340.087 256.245C341.304 256.421 342.521 256.56 343.738 256.663C343.871 256.682 344.005 256.688 344.144 256.694C344.44 256.718 344.731 256.742 345.028 256.76C345.682 256.803 346.342 256.833 347.002 256.857C347.05 256.857 347.093 256.863 347.141 256.863C347.474 256.875 347.807 256.888 348.14 256.894C348.14 256.894 348.14 256.9 348.146 256.894C348.479 256.9 348.812 256.906 349.145 256.906H350.986C351.331 256.906 351.676 256.912 352.028 256.912C352.512 256.912 353.002 256.918 353.487 256.924C353.614 256.924 353.747 256.93 353.88 256.93C354.655 256.942 355.431 256.96 356.206 256.978C356.254 256.978 356.302 256.984 356.351 256.984C357.126 257.009 357.901 257.033 358.676 257.069C358.846 257.075 359.015 257.081 359.191 257.093C359.936 257.124 360.68 257.16 361.425 257.203C361.637 257.215 361.855 257.233 362.073 257.245C362.636 257.275 363.205 257.312 363.768 257.354C364.102 257.372 364.428 257.396 364.762 257.427C366.106 257.53 367.444 257.645 368.788 257.778C369.236 257.814 369.684 257.863 370.132 257.911C371.331 258.039 372.534 258.178 373.741 258.329C374.28 258.39 374.819 258.463 375.358 258.535C375.419 258.541 375.479 258.547 375.54 258.56C376.206 258.65 376.866 258.741 377.532 258.838C377.968 258.899 378.404 258.965 378.84 259.032C379.288 259.099 379.736 259.165 380.184 259.244C380.426 259.28 380.668 259.323 380.917 259.365C381.498 259.456 382.085 259.553 382.673 259.662C382.725 259.667 382.778 259.675 382.83 259.686C384.077 259.904 385.331 260.135 386.578 260.383C387.311 260.522 388.037 260.668 388.764 260.819C389.333 260.934 389.902 261.055 390.472 261.177C390.568 261.195 390.665 261.219 390.762 261.243C390.784 261.25 390.806 261.254 390.829 261.255C391.689 261.443 392.555 261.637 393.414 261.843C396.4 262.534 399.381 263.301 402.358 264.145C403.042 264.333 403.726 264.533 404.411 264.733C404.701 264.818 404.986 264.902 405.27 264.987C405.864 265.163 406.451 265.339 407.045 265.526C407.565 265.684 408.092 265.847 408.613 266.017C408.94 266.12 409.267 266.223 409.594 266.332C410.102 266.49 410.611 266.653 411.114 266.829C411.543 266.962 411.967 267.101 412.391 267.253C412.997 267.453 413.608 267.659 414.214 267.877C414.389 267.937 414.571 267.998 414.747 268.065C415.485 268.319 416.224 268.58 416.963 268.852C417.683 269.113 418.404 269.379 419.118 269.646C419.615 269.834 420.111 270.015 420.602 270.209C421.153 270.421 421.704 270.633 422.249 270.851C423.036 271.16 423.829 271.475 424.617 271.796C425.343 272.087 426.064 272.384 426.79 272.693C426.924 272.748 427.063 272.802 427.196 272.863C427.826 273.123 428.455 273.396 429.079 273.668C429.485 273.838 429.884 274.014 430.284 274.189C432.028 274.953 433.77 275.742 435.51 276.558H435.516C436.606 277.073 437.714 277.564 438.828 278.03C439.088 278.139 439.349 278.248 439.615 278.351C440.057 278.539 440.505 278.715 440.953 278.897C441.244 279.012 441.535 279.127 441.831 279.236C442.261 279.405 442.697 279.569 443.133 279.727C443.593 279.896 444.047 280.066 444.514 280.223C444.677 280.284 444.841 280.338 445.01 280.399C445.549 280.581 446.088 280.763 446.633 280.938C446.688 280.956 446.742 280.975 446.803 280.993C447.372 281.174 447.941 281.356 448.516 281.526C448.562 281.543 448.608 281.557 448.655 281.568C449.273 281.756 449.903 281.938 450.526 282.113C451.447 282.368 452.373 282.61 453.3 282.834C453.469 282.877 453.639 282.919 453.808 282.956C454.305 283.077 454.795 283.192 455.292 283.301C455.819 283.422 456.352 283.531 456.878 283.64C457.411 283.749 457.944 283.858 458.471 283.955C458.755 284.01 459.04 284.064 459.319 284.113L460.063 284.24C460.578 284.331 461.093 284.409 461.613 284.494C461.628 284.494 461.642 284.496 461.656 284.5C462.243 284.591 462.824 284.676 463.412 284.749C463.975 284.827 464.538 284.894 465.101 284.961C465.216 284.973 465.337 284.985 465.458 284.997C465.925 285.052 466.391 285.106 466.857 285.149C466.99 285.161 467.124 285.173 467.257 285.185C467.717 285.227 468.177 285.27 468.637 285.3C468.73 285.312 468.823 285.318 468.916 285.318C469.328 285.355 469.739 285.385 470.151 285.403C470.442 285.427 470.726 285.439 471.017 285.458C471.168 285.464 471.314 285.47 471.465 285.476C471.865 285.5 472.264 285.512 472.67 285.524C473.161 285.542 473.651 285.554 474.135 285.567C474.723 285.579 475.316 285.585 475.904 285.585H475.916C476.491 285.585 477.072 285.579 477.647 285.567H477.866L478.501 285.548C478.828 285.542 479.155 285.53 479.476 285.518C480.094 285.494 480.705 285.464 481.317 285.427C481.559 285.415 481.807 285.397 482.05 285.385C482.159 285.379 482.274 285.367 482.383 285.361C482.764 285.336 483.14 285.312 483.521 285.282C483.915 285.252 484.314 285.215 484.708 285.173C485.216 285.124 485.725 285.07 486.234 285.015C486.633 284.973 487.033 284.924 487.427 284.876C487.48 284.871 487.532 284.863 487.584 284.852C487.965 284.809 488.347 284.761 488.722 284.706C489.17 284.646 489.612 284.579 490.055 284.512C490.103 284.506 490.145 284.5 490.194 284.494C490.957 284.373 491.726 284.252 492.495 284.113C493.3 283.967 494.105 283.81 494.905 283.646C495.201 283.586 495.492 283.519 495.789 283.458C495.952 283.422 496.122 283.392 496.279 283.355C496.527 283.301 496.77 283.246 497.012 283.186C497.054 283.18 497.103 283.168 497.145 283.162C497.484 283.089 497.817 283.004 498.156 282.919C498.834 282.756 499.501 282.586 500.167 282.404C500.463 282.332 500.76 282.253 501.045 282.174C501.129 282.15 501.214 282.126 501.293 282.101C502.522 281.756 503.741 281.391 504.95 281.005C505.483 280.835 506.01 280.66 506.537 280.472C507.669 280.084 508.791 279.676 509.903 279.248C510.2 279.139 510.497 279.018 510.793 278.903C511.229 278.727 511.665 278.551 512.095 278.376C512.483 278.212 512.87 278.049 513.264 277.879C513.458 277.8 513.651 277.715 513.845 277.63C514.426 277.376 515.008 277.116 515.583 276.855C515.971 276.673 516.352 276.498 516.733 276.316C517.339 276.025 517.938 275.728 518.538 275.431C518.689 275.353 518.835 275.274 518.98 275.201C519.361 275.007 519.743 274.807 520.13 274.614C520.742 274.286 521.354 273.959 521.959 273.62C522.165 273.511 522.365 273.396 522.571 273.281C523.237 272.905 523.897 272.524 524.551 272.136C525.998 271.27 527.425 270.365 528.832 269.422C529.183 269.192 529.534 268.949 529.879 268.713C530.533 268.265 531.175 267.804 531.817 267.344C531.883 267.295 531.944 267.247 532.011 267.205C532.331 266.968 532.652 266.732 532.973 266.49C533.639 265.987 534.299 265.478 534.959 264.957C534.972 264.951 534.99 264.933 535.008 264.921C535.305 264.684 535.601 264.448 535.892 264.212C536.794 263.479 537.684 262.734 538.556 261.964C538.986 261.595 539.41 261.213 539.828 260.831C540.143 260.547 540.458 260.262 540.766 259.971C541.39 259.384 542.001 258.802 542.607 258.208C542.91 257.917 543.206 257.615 543.509 257.312C543.806 257.009 544.109 256.706 544.405 256.397C544.508 256.294 544.611 256.185 544.714 256.076C545.017 255.755 545.32 255.428 545.623 255.106C545.883 254.828 546.137 254.537 546.398 254.246C546.834 253.762 547.276 253.277 547.705 252.786C547.728 252.759 547.752 252.732 547.778 252.708C547.802 252.677 547.827 252.653 547.845 252.629H547.839C556.64 242.446 563.18 230.509 567.025 217.609C570.869 204.708 571.932 191.137 570.142 177.795C568.352 164.452 563.75 151.642 556.641 140.212C549.532 128.783 540.078 118.994 528.904 111.493Z" fill="#6C63FF"/>
<g opacity="0.15">
<path d="M406.343 40.0029C407.55 44.3408 409.366 48.4854 411.737 52.3129C407.768 48.902 404.222 45.0276 401.175 40.7727C402.887 40.4488 404.61 40.1922 406.343 40.0029Z" fill="black"/>
<path d="M347.259 107.088C342.777 109.535 338.587 112.482 334.768 115.873C341.216 108.244 345.929 99.304 348.579 89.6718C348.611 89.5561 348.644 89.4396 348.675 89.3237L348.765 88.9959C351.95 77.4998 358.13 67.0563 366.672 58.7336L367.344 58.0789L367.818 58.8879C370.436 63.3429 373.57 67.474 377.154 71.1959C371.662 86.7009 360.975 99.6055 347.259 107.088Z" fill="black"/>
<path d="M378.823 65.8236L378.733 66.1514C378.702 66.2673 378.67 66.3839 378.638 66.4995C378.461 67.1371 378.273 67.7697 378.079 68.3997C376.163 63.4359 374.818 58.2702 374.069 53.0023L373.999 52.5553L374.366 52.2927C378.974 48.9801 383.978 46.2583 389.262 44.1909C384.518 50.7194 380.982 58.0463 378.823 65.8236Z" fill="black"/>
<path d="M317.2 130.261C321.167 128.089 324.879 125.482 328.268 122.488C321.497 130.375 316.644 139.723 314.089 149.8C311.533 159.877 311.344 170.41 313.538 180.572C315.731 190.735 320.247 200.251 326.731 208.375C333.215 216.499 341.491 223.011 350.911 227.4L351.217 227.542L351.523 227.404C356.611 225.104 361.976 223.474 367.483 222.555C364.046 224.306 360.841 226.483 357.946 229.033L356.966 229.88L358.195 230.286C359.256 230.637 360.317 230.96 361.348 231.246C367.408 232.935 373.673 233.774 379.964 233.738C408.545 233.555 437.348 240.166 465.572 253.387C470.413 255.651 475.433 257.508 480.582 258.937C503.019 265.187 526.972 262.939 547.856 252.623C536.082 266.247 520.686 276.249 503.457 281.468C486.229 286.688 467.873 286.91 450.523 282.11C445.375 280.68 440.354 278.823 435.514 276.559C407.289 263.338 378.486 256.727 349.905 256.911C343.615 256.946 337.35 256.107 331.29 254.419C330.258 254.132 329.197 253.809 328.137 253.458L326.907 253.052L327.887 252.205C330.783 249.655 333.987 247.479 337.425 245.727C331.917 246.646 326.553 248.276 321.464 250.576L321.159 250.714L320.853 250.572C309.54 245.304 299.914 236.995 293.047 226.572C286.18 216.148 282.343 204.021 281.964 191.543C281.585 179.065 284.679 166.727 290.901 155.905C297.123 145.084 306.228 136.206 317.2 130.261Z" fill="black"/>
</g>
</g>
<defs>
<clipPath id="clip0_700_4608">
<rect width="571" height="482" fill="white"/>
</clipPath>
</defs>
</svg>
