<svg width="25" height="24" viewBox="0 0 25 24" fill="none" xmlns="http://www.w3.org/2000/svg">
<path d="M13.25 9C13.25 8.58579 12.9142 8.25 12.5 8.25C12.0858 8.25 11.75 8.58579 11.75 9V15.9362C11.7358 15.9251 11.7213 15.9137 11.7065 15.9018C11.3839 15.6427 11.0003 15.2573 10.4305 14.6824L9.03269 13.272C8.74111 12.9778 8.26624 12.9757 7.97204 13.2673C7.67784 13.5589 7.67572 14.0338 7.96731 14.328L9.39566 15.7691C9.92703 16.3053 10.3702 16.7525 10.7672 17.0713C11.1837 17.4057 11.6213 17.6601 12.1545 17.7281C12.3839 17.7573 12.6161 17.7573 12.8455 17.7281C13.3787 17.6601 13.8163 17.4057 14.2328 17.0713C14.6298 16.7525 15.073 16.3053 15.6044 15.7691L17.0327 14.328C17.3243 14.0338 17.3222 13.5589 17.028 13.2673C16.7338 12.9757 16.2589 12.9778 15.9673 13.272L14.5695 14.6824C13.9997 15.2573 13.6161 15.6427 13.2935 15.9018C13.2827 15.9105 13.272 15.9189 13.2615 15.9272C13.2577 15.9302 13.2538 15.9332 13.25 15.9362V9Z" fill="white"/>
<path fill-rule="evenodd" clip-rule="evenodd" d="M15.5257 1.27937C14.6685 1.25 13.6711 1.25 12.5111 1.25H12.4548C10.6182 1.24999 9.17861 1.24999 8.03648 1.37373C6.87094 1.50001 5.92656 1.76232 5.12024 2.34815C4.63209 2.70281 4.20281 3.13209 3.84815 3.62024C3.26232 4.42656 3.00001 5.37094 2.87373 6.53648C2.74999 7.67861 2.74999 9.11821 2.75 10.9548V13.0452C2.74999 14.8818 2.74999 16.3214 2.87373 17.4635C3.00001 18.6291 3.26232 19.5734 3.84815 20.3798C4.20281 20.8679 4.63209 21.2972 5.12024 21.6518C5.92656 22.2377 6.87094 22.5 8.03648 22.6263C9.17859 22.75 10.6182 22.75 12.4547 22.75H12.5453C14.3818 22.75 15.8214 22.75 16.9635 22.6263C18.1291 22.5 19.0734 22.2377 19.8798 21.6518C20.3679 21.2972 20.7972 20.8679 21.1518 20.3798C21.7377 19.5734 22 18.6291 22.1263 17.4635C22.25 16.3214 22.25 14.8818 22.25 13.0453V10.989C22.25 9.82891 22.25 8.83153 22.2206 7.97432C22.1564 6.10087 21.9537 4.7239 21.1518 3.62024C20.7972 3.13209 20.3679 2.70281 19.8798 2.34815C18.7761 1.5463 17.3991 1.34356 15.5257 1.27937ZM6.00191 3.56168C6.50992 3.19259 7.16013 2.97745 8.19804 2.865C9.24999 2.75103 10.6084 2.75 12.5 2.75C13.3483 2.75 14.0918 2.75005 14.7518 2.76082C14.7562 3.23547 14.771 3.58489 14.8208 3.8995C15.2105 6.35988 17.1401 8.28952 19.6005 8.67921C19.9151 8.72904 20.2645 8.74381 20.7392 8.74818C20.75 9.40822 20.75 10.1517 20.75 11V13C20.75 14.8916 20.749 16.25 20.635 17.302C20.5225 18.3399 20.3074 18.9901 19.9383 19.4981C19.6762 19.8589 19.3589 20.1762 18.9981 20.4383C18.4901 20.8074 17.8399 21.0225 16.802 21.135C15.75 21.249 14.3916 21.25 12.5 21.25C10.6084 21.25 9.24999 21.249 8.19804 21.135C7.16013 21.0225 6.50992 20.8074 6.00191 20.4383C5.64111 20.1762 5.32382 19.8589 5.06168 19.4981C4.69259 18.9901 4.47745 18.3399 4.365 17.302C4.25103 16.25 4.25 14.8916 4.25 13V11C4.25 9.10843 4.25103 7.74999 4.365 6.69804C4.47745 5.66013 4.69259 5.00992 5.06168 4.50191C5.32382 4.14111 5.64111 3.82382 6.00191 3.56168ZM16.3023 3.66485C16.2699 3.45981 16.2575 3.22238 16.2528 2.81744C17.6131 2.91121 18.3986 3.12615 18.9981 3.56168C19.3589 3.82382 19.6762 4.14111 19.9383 4.50191C20.3738 5.10137 20.5888 5.88688 20.6826 7.24722C20.2776 7.24254 20.0402 7.23015 19.8352 7.19768C18.0166 6.90965 16.5904 5.48339 16.3023 3.66485Z" fill="white"/>
</svg>
