<svg width="8" height="22" viewBox="0 0 8 22" fill="none" xmlns="http://www.w3.org/2000/svg">
<path d="M4.5 1C4.5 0.723858 4.27614 0.5 4 0.5C3.72386 0.5 3.5 0.723858 3.5 1L4.5 1ZM3.64645 21.3536C3.84171 21.5488 4.15829 21.5488 4.35355 21.3536L7.53553 18.1716C7.7308 17.9763 7.7308 17.6597 7.53553 17.4645C7.34027 17.2692 7.02369 17.2692 6.82843 17.4645L4 20.2929L1.17157 17.4645C0.97631 17.2692 0.659728 17.2692 0.464465 17.4645C0.269203 17.6597 0.269203 17.9763 0.464465 18.1716L3.64645 21.3536ZM3.5 1L3.5 2L4.5 2L4.5 1L3.5 1ZM3.5 4L3.5 6L4.5 6L4.5 4L3.5 4ZM3.5 8L3.5 10L4.5 10L4.5 8L3.5 8ZM3.5 12L3.5 14L4.5 14L4.5 12L3.5 12ZM3.5 16L3.5 18L4.5 18L4.5 16L3.5 16ZM3.5 20L3.5 21L4.5 21L4.5 20L3.5 20ZM4.5 1C4.5 0.723858 4.27614 0.5 4 0.5C3.72386 0.5 3.5 0.723858 3.5 1L4.5 1ZM3.64645 21.3536C3.84171 21.5488 4.15829 21.5488 4.35355 21.3536L7.53553 18.1716C7.7308 17.9763 7.7308 17.6597 7.53553 17.4645C7.34027 17.2692 7.02369 17.2692 6.82843 17.4645L4 20.2929L1.17157 17.4645C0.97631 17.2692 0.659728 17.2692 0.464465 17.4645C0.269203 17.6597 0.269203 17.9763 0.464465 18.1716L3.64645 21.3536ZM3.5 1L3.5 2L4.5 2L4.5 1L3.5 1ZM3.5 4L3.5 6L4.5 6L4.5 4L3.5 4ZM3.5 8L3.5 10L4.5 10L4.5 8L3.5 8ZM3.5 12L3.5 14L4.5 14L4.5 12L3.5 12ZM3.5 16L3.5 18L4.5 18L4.5 16L3.5 16ZM3.5 20L3.5 21L4.5 21L4.5 20L3.5 20Z" fill="black"/>
</svg>
