<svg width="24" height="24" viewBox="0 0 24 24" fill="none" xmlns="http://www.w3.org/2000/svg">
<path fill-rule="evenodd" clip-rule="evenodd" d="M3.5 5.40989C3.92981 3.37177 5.72705 1.9123 7.81 1.90989L7.84 1.88989C9.90843 1.88915 11.6981 3.32922 12.14 5.34989H12.25C13.7688 5.34989 15 6.58111 15 8.09989V8.67989H19C19.7187 8.70643 20.3979 9.01547 20.89 9.53989L21.94 10.5399C22.4581 11.0525 22.7498 11.751 22.75 12.4799V17.8799C22.75 19.3987 21.5188 20.6299 20 20.6299H18.63C18.3095 21.6699 17.3483 22.3795 16.26 22.3795C15.1717 22.3795 14.2105 21.6699 13.89 20.6299H9.08C9.03345 20.6346 8.98655 20.6346 8.94 20.6299C8.67004 21.7419 7.6743 22.5248 6.53 22.5248C5.3857 22.5248 4.38996 21.7419 4.12 20.6299H2C1.58804 20.6245 1.25539 20.2919 1.25 19.8799V9.09989C1.25 6.40989 2.5 5.61989 3.5 5.40989ZM16.26 18.6799C16.7797 18.6831 17.2372 19.0232 17.39 19.5199C17.4297 19.649 17.4905 19.7707 17.57 19.8799C17.4887 19.9843 17.4276 20.103 17.39 20.2299C17.24 20.7286 16.7808 21.07 16.26 21.07C15.7392 21.07 15.28 20.7286 15.13 20.2299C15.0924 20.103 15.0313 19.9843 14.95 19.8799C15.0295 19.7707 15.0903 19.649 15.13 19.5199C15.2828 19.0232 15.7403 18.6831 16.26 18.6799ZM6.53 18.7799C7.03696 18.7862 7.48527 19.1104 7.65 19.5899C7.68986 19.7097 7.75082 19.8215 7.83 19.9199C7.76154 20.0278 7.71089 20.1459 7.68 20.2699C7.55681 20.8058 7.07984 21.1855 6.53 21.1855C5.98017 21.1855 5.5032 20.8058 5.38 20.2699C5.35288 20.1447 5.30196 20.0259 5.23 19.9199C5.30178 19.8132 5.36212 19.6992 5.41 19.5799C5.57474 19.1004 6.02304 18.7762 6.53 18.7699V18.7799ZM7.81 9.22989C6.20285 9.22989 4.9 7.92704 4.9 6.31989C4.9 4.71274 6.20285 3.40989 7.81 3.40989C9.41715 3.40989 10.72 4.71274 10.72 6.31989C10.72 7.09167 10.4134 7.83184 9.86768 8.37757C9.32195 8.92331 8.58178 9.22989 7.81 9.22989ZM12.17 6.83989C11.9117 9.05369 10.0388 10.7247 7.81 10.7299C5.64026 10.7206 3.79963 9.13447 3.47 6.98989C3.1 7.19989 2.75 7.72989 2.75 9.09989V19.1299H4C4.0599 19.1251 4.1201 19.1251 4.18 19.1299C4.52006 18.1214 5.4657 17.4423 6.53 17.4423C7.5943 17.4423 8.53994 18.1214 8.88 19.1299C8.94658 19.1251 9.01342 19.1251 9.08 19.1299H13.89C14.2105 18.0899 15.1717 17.3803 16.26 17.3803C17.3483 17.3803 18.3095 18.0899 18.63 19.1299H20C20.3395 19.1274 20.6636 18.988 20.8989 18.7432C21.1342 18.4985 21.2608 18.1692 21.25 17.8299V13.5799H17C16.5858 13.5799 16.25 13.2441 16.25 12.8299C16.25 12.4157 16.5858 12.0799 17 12.0799H21.2C21.1485 11.8798 21.045 11.697 20.9 11.5499L19.85 10.5499C19.6191 10.3122 19.3014 10.1786 18.97 10.1799H14.97V14.4299C14.97 14.8441 14.6342 15.1799 14.22 15.1799C13.8058 15.1799 13.47 14.8441 13.47 14.4299V8.09989C13.4727 7.76664 13.3421 7.44613 13.1074 7.20954C12.8727 6.97295 12.5533 6.83988 12.22 6.83989H12.17Z" fill="black"/>
<path d="M6.67 4.41989C6.47116 4.42007 6.28052 4.4992 6.14 4.63989C5.99705 4.77918 5.91643 4.97031 5.91643 5.16989C5.91643 5.36948 5.99705 5.56061 6.14 5.69989L7.06 6.62989V7.46989C7.06 7.88411 7.39579 8.21989 7.81 8.21989C8.22422 8.21989 8.56 7.88411 8.56 7.46989V6.46989C8.56419 6.15068 8.43775 5.84361 8.21 5.61989L7.21 4.61989C7.06716 4.48272 6.878 4.4042 6.68 4.39989L6.67 4.41989Z" fill="black"/>
</svg>
