<svg width="25" height="24" viewBox="0 0 25 24" fill="none" xmlns="http://www.w3.org/2000/svg">
<path d="M7.5 8.37931H12M17.5 8.37931H15M12 8.37931H15M12 8.37931V7M15 8.37931C14.4725 10.2656 13.3679 12.0487 12.1071 13.6158M8.89286 17C9.91205 16.0628 11.0631 14.9134 12.1071 13.6158M12.1071 13.6158C11.4643 12.8621 10.5643 11.6426 10.3071 11.0909M12.1071 13.6158L14.0357 15.6207" stroke="black" stroke-width="1.5" stroke-linecap="round" stroke-linejoin="round"/>
<path d="M3 12C3 7.52166 3 5.28249 4.39124 3.89124C5.78249 2.5 8.02166 2.5 12.5 2.5C16.9783 2.5 19.2175 2.5 20.6088 3.89124C22 5.28249 22 7.52166 22 12C22 16.4783 22 18.7175 20.6088 20.1088C19.2175 21.5 16.9783 21.5 12.5 21.5C8.02166 21.5 5.78249 21.5 4.39124 20.1088C3 18.7175 3 16.4783 3 12Z" stroke="black" stroke-width="1.5"/>
</svg>
