<svg width="24" height="24" viewBox="0 0 24 24" fill="none" xmlns="http://www.w3.org/2000/svg">
<path fill-rule="evenodd" clip-rule="evenodd" d="M9.85 12.8099H8.46C8.19128 12.81 7.93385 12.7019 7.74573 12.51C7.55761 12.3181 7.45463 12.0586 7.46 11.7899V10.3999C7.46 9.84763 7.90772 9.39992 8.46 9.39992H9.85C10.4023 9.39992 10.85 9.84763 10.85 10.3999V11.8099C10.85 12.3622 10.4023 12.8099 9.85 12.8099ZM9.37 10.8799H8.94V11.3099H9.37V10.8799Z" fill="black"/>
<path d="M8.13 15.3399H12.56C12.9742 15.3399 13.31 15.0041 13.31 14.5899C13.31 14.1757 12.9742 13.8399 12.56 13.8399H8.13C7.71579 13.8399 7.38 14.1757 7.38 14.5899C7.38 15.0041 7.71579 15.3399 8.13 15.3399Z" fill="black"/>
<path d="M14 16.3699H8.13C7.71579 16.3699 7.38 16.7057 7.38 17.1199C7.38 17.5341 7.71579 17.8699 8.13 17.8699H14C14.4142 17.8699 14.75 17.5341 14.75 17.1199C14.75 16.7057 14.4142 16.3699 14 16.3699Z" fill="black"/>
<path fill-rule="evenodd" clip-rule="evenodd" d="M19.53 9.43992L12.53 2.43992C12.3827 2.31364 12.194 2.24601 12 2.24992H9C6.37665 2.24992 4.25 4.37656 4.25 6.99992V16.9999C4.25 19.6233 6.37665 21.7499 9 21.7499H15C17.6234 21.7499 19.75 19.6233 19.75 16.9999V9.99992C19.7534 9.79154 19.6743 9.59026 19.53 9.43992ZM12.75 4.78992L17.21 9.24992H14C13.3096 9.24992 12.75 8.69027 12.75 7.99992V4.78992ZM5.75 16.9999C5.75549 18.7926 7.20735 20.2444 9 20.2499H15C16.7926 20.2444 18.2445 18.7926 18.25 16.9999V10.7499H14C12.4812 10.7499 11.25 9.5187 11.25 7.99992V3.74992H9C7.20735 3.75541 5.75549 5.20727 5.75 6.99992V16.9999Z" fill="black"/>
</svg>
